<svg width="97" height="96" viewBox="0 0 97 96" fill="none" xmlns="http://www.w3.org/2000/svg">
<path d="M43.168 84L48.5 78.668L43.168 73.336" stroke="black" stroke-width="4.5" stroke-linecap="round" stroke-linejoin="round"/>
<path d="M84.0557 56.024C86.8677 58.152 88.4997 60.552 88.4997 63.112C88.4997 69.656 78.0997 75.244 63.3877 77.544" stroke="black" stroke-width="4.5" stroke-linecap="round" stroke-linejoin="round"/>
<path d="M12.944 56.024C10.132 58.152 8.5 60.552 8.5 63.112C8.5 71.704 26.408 78.668 48.5 78.668" stroke="black" stroke-width="4.5" stroke-linecap="round" stroke-linejoin="round"/>
<path d="M38.9004 12V20.64C38.9004 22.228 39.9764 23.52 41.3004 23.52H55.7004C57.0244 23.52 58.1004 22.228 58.1004 20.64V12" stroke="black" stroke-width="4.5" stroke-linecap="round" stroke-linejoin="round"/>
<path d="M24.5 60V21.6C24.5 16.296 28.796 12 34.1 12H62.9C68.204 12 72.5 16.296 72.5 21.6V60" stroke="black" stroke-width="4.5" stroke-linecap="round" stroke-linejoin="round"/>
</svg>
