<?xml version="1.0" encoding="UTF-8"?>
<svg id="Layer_2" data-name="Layer 2" xmlns="http://www.w3.org/2000/svg" viewBox="0 0 64.31 64.25">
  <defs>
    <style>
      .cls-1 {
        fill: #fde8a9;
      }

      .cls-1, .cls-2 {
        stroke-width: 0px;
      }

      .cls-3 {
        fill: #000;
        stroke: #000;
        stroke-miterlimit: 10;
      }

      .cls-4 {
        fill: none;
        stroke: #231f20;
        stroke-miterlimit: 10;
        stroke-width: 2px;
      }

      .cls-2 {
        fill: #231f20;
      }
    </style>
  </defs>
  <g id="Layer_3" data-name="Layer 3">
    <g>
      <path class="cls-1" d="M32.31,0h0c17.67,0,32,14.33,32,32h0c0,17.67-14.33,32-32,32h0C14.63,64,.31,49.67.31,32H.31C.31,14.33,14.63,0,32.31,0Z"/>
      <g id="Layer_2-2" data-name="Layer 2-2">
        <g>
          <rect class="cls-4" x="19.92" y="12.55" width="21.99" height="38.9" rx="2.74" ry="2.74" transform="translate(-13.13 25.68) rotate(-37.82)"/>
          <g>
            <path class="cls-2" d="M50.49,32.38c-.37.01-.68-.27-.7-.63-.27-3.98-1.85-7.79-4.49-10.8-2.92-3.33-6.9-5.46-11.26-6.06-.36-.05-.62-.38-.59-.75h0c.04-.39.39-.67.78-.61,4.69.64,8.97,2.93,12.1,6.51,2.84,3.23,4.54,7.33,4.83,11.6.03.39-.27.72-.66.74h0Z"/>
            <path class="cls-2" d="M50.22,29.42l2.05-.16c.78-.06,1.33.74,1,1.45l-.88,1.86-.88,1.86c-.34.71-1.31.78-1.75.14l-1.17-1.69-1.17-1.69c-.44-.64-.03-1.53.75-1.59l2.05-.16h0Z"/>
          </g>
          <path class="cls-2" d="M29.25,50.53c-.03.39-.38.67-.77.62-4.7-.58-9-2.82-12.18-6.36-2.87-3.2-4.62-7.27-4.97-11.54-.03-.39.27-.73.65-.75h0c.37-.02.68.26.71.63.32,3.97,1.95,7.77,4.62,10.75,2.96,3.29,6.96,5.38,11.34,5.92.37.05.63.37.6.74h0Z"/>
          <path class="cls-2" d="M12.32,35.45l-2.05.19c-.78.07-1.34-.72-1.02-1.44l.86-1.87.86-1.87c.33-.71,1.3-.8,1.75-.16l1.19,1.68,1.19,1.68c.45.64.04,1.53-.73,1.6l-2.05.19h0Z"/>
          <rect class="cls-2" x="15.26" y="16.73" width="8.03" height="2.03" rx=".86" ry=".86" transform="translate(-6.85 15.71) rotate(-38.18)"/>
        </g>
      </g>
      <path class="cls-1" d="M32,.25h0c17.67,0,32,14.33,32,32h0c0,17.67-14.33,32-32,32h0C14.33,64.25,0,49.92,0,32.25h0C0,14.58,14.33.25,32,.25Z"/>
      <g>
        <path class="cls-3" d="M32,47.4c-8.35,0-15.15-6.8-15.15-15.15s6.8-15.15,15.15-15.15,15.15,6.8,15.15,15.15-6.8,15.15-15.15,15.15ZM32,18.18c-7.76,0-14.07,6.31-14.07,14.07s6.31,14.07,14.07,14.07,14.07-6.31,14.07-14.07-6.31-14.07-14.07-14.07Z"/>
        <g>
          <g id="_Radial_Repeat_" data-name="&amp;lt;Radial Repeat&amp;gt;">
            <rect class="cls-2" x="12.59" y="34.91" width=".88" height="6.99" rx=".44" ry=".44" transform="translate(-19.84 62.15) rotate(-107.1)"/>
          </g>
          <g id="_Radial_Repeat_-2" data-name="&amp;lt;Radial Repeat&amp;gt;">
            <rect class="cls-2" x="12.6" y="22.58" width=".88" height="6.99" rx=".44" ry=".44" transform="translate(-15.86 29.97) rotate(-71.1)"/>
          </g>
          <g id="_Radial_Repeat_-3" data-name="&amp;lt;Radial Repeat&amp;gt;">
            <rect class="cls-2" x="19.85" y="12.62" width=".88" height="6.99" rx=".44" ry=".44" transform="translate(-5.57 14.6) rotate(-35.1)"/>
          </g>
          <g id="_Radial_Repeat_-4" data-name="&amp;lt;Radial Repeat&amp;gt;">
            <rect class="cls-2" x="31.57" y="8.82" width=".88" height="6.99" rx=".44" ry=".44" transform="translate(.2 -.5) rotate(.9)"/>
          </g>
          <g id="_Radial_Repeat_-5" data-name="&amp;lt;Radial Repeat&amp;gt;">
            <rect class="cls-2" x="43.29" y="12.63" width=".88" height="6.99" rx=".44" ry=".44" transform="translate(18.44 -23.03) rotate(36.9)"/>
          </g>
          <g id="_Radial_Repeat_-6" data-name="&amp;lt;Radial Repeat&amp;gt;">
            <rect class="cls-2" x="50.53" y="22.61" width=".88" height="6.99" rx=".44" ry=".44" transform="translate(60.93 -30.29) rotate(72.9)"/>
          </g>
          <g id="_Radial_Repeat_-7" data-name="&amp;lt;Radial Repeat&amp;gt;">
            <rect class="cls-2" x="50.52" y="34.93" width=".88" height="6.99" rx=".44" ry=".44" transform="translate(103.82 2.66) rotate(108.9)"/>
          </g>
          <g id="_Radial_Repeat_-8" data-name="&amp;lt;Radial Repeat&amp;gt;">
            <rect class="cls-2" x="43.27" y="44.9" width=".88" height="6.99" rx=".44" ry=".44" transform="translate(107.3 62.85) rotate(144.9)"/>
          </g>
          <g id="_Radial_Repeat_-9" data-name="&amp;lt;Radial Repeat&amp;gt;">
            <rect class="cls-2" x="31.55" y="48.7" width=".88" height="6.99" rx=".44" ry=".44" transform="translate(63.15 104.88) rotate(-179.1)"/>
          </g>
          <g id="_Radial_Repeat_-10" data-name="&amp;lt;Radial Repeat&amp;gt;">
            <rect class="cls-2" x="19.83" y="44.88" width=".88" height="6.99" rx=".44" ry=".44" transform="translate(7.43 99.23) rotate(-143.1)"/>
          </g>
        </g>
      </g>
    </g>
  </g>
</svg>