<svg width="97" height="96" viewBox="0 0 97 96" fill="none" xmlns="http://www.w3.org/2000/svg">
<path fill-rule="evenodd" clip-rule="evenodd" d="M58.8432 18.3432L63.3284 22.8285C64.0786 23.5786 65.096 24 66.1568 24H76.5C80.9183 24 84.5 27.5817 84.5 32V68C84.5 72.4183 80.9183 76 76.5 76H20.5C16.0817 76 12.5 72.4183 12.5 68V32C12.5 27.5817 16.0817 24 20.5 24H30.8432C31.904 24 32.9214 23.5786 33.6716 22.8284L38.1568 18.3432C39.6571 16.8429 41.692 16 43.8137 16H53.1863C55.308 16 57.3429 16.8429 58.8432 18.3432Z" stroke="black" stroke-width="4.5" stroke-linecap="round" stroke-linejoin="round"/>
<circle cx="48.5" cy="48" r="16" stroke="black" stroke-width="4.5" stroke-linecap="round" stroke-linejoin="round"/>
<path d="M72.7 36.0003C72.6998 36.1107 72.6103 36.2001 72.4999 36.2C72.3895 36.1999 72.3 36.1105 72.3 36.0001C72.3 35.8897 72.3894 35.8001 72.4998 35.8C72.5529 35.7999 72.6039 35.821 72.6414 35.8586C72.679 35.8961 72.7001 35.9471 72.7 36.0002" stroke="black" stroke-width="4.5" stroke-linecap="round" stroke-linejoin="round"/>
<path d="M42.5 48C42.5 44.6863 45.1863 42 48.5 42" stroke="black" stroke-width="4.5" stroke-linecap="round" stroke-linejoin="round"/>
</svg>
