<svg width="33" height="33" viewBox="0 0 33 33" fill="none" xmlns="http://www.w3.org/2000/svg">
<g clip-path="url(#clip0_552_3481)">
<path d="M0.5 16.5C0.5 7.66344 7.66344 0.5 16.5 0.5C25.3366 0.5 32.5 7.66344 32.5 16.5C32.5 25.3366 25.3366 32.5 16.5 32.5C7.66344 32.5 0.5 25.3366 0.5 16.5Z" fill="#FBD86F"/>
<path d="M11.167 11.1667L21.8337 21.8334" stroke="#1B1B1B" stroke-width="2" stroke-linecap="round" stroke-linejoin="round"/>
<path d="M21.8337 11.1667L11.167 21.8334" stroke="#1B1B1B" stroke-width="2" stroke-linecap="round" stroke-linejoin="round"/>
</g>
<defs>
<clipPath id="clip0_552_3481">
<path d="M0.5 16.5C0.5 7.66344 7.66344 0.5 16.5 0.5C25.3366 0.5 32.5 7.66344 32.5 16.5C32.5 25.3366 25.3366 32.5 16.5 32.5C7.66344 32.5 0.5 25.3366 0.5 16.5Z" fill="white"/>
</clipPath>
</defs>
</svg>
