<svg width="97" height="97" viewBox="0 0 97 97" fill="none" xmlns="http://www.w3.org/2000/svg">
<path fill-rule="evenodd" clip-rule="evenodd" d="M55.9873 66.803L25.669 81.9621C22.6178 83.4877 18.9328 82.8897 16.5207 80.4776V80.4776C14.1086 78.0654 13.5106 74.3804 15.0361 71.3293L30.1953 41.011C30.7703 39.8608 31.8631 39.0572 33.1324 38.8513C34.4016 38.6453 35.6925 39.062 36.6017 39.9713L57.027 60.3966C57.9362 61.3058 58.353 62.5967 58.147 63.8659C57.941 65.1352 57.1374 66.228 55.9873 66.803Z" stroke="#1B1B1B" stroke-width="4.5" stroke-linecap="round" stroke-linejoin="round"/>
<path d="M20.5 12.5V14.5" stroke="#1B1B1B" stroke-width="4.5" stroke-linecap="round" stroke-linejoin="round"/>
<path d="M20.5 28.5V26.5" stroke="#1B1B1B" stroke-width="4.5" stroke-linecap="round" stroke-linejoin="round"/>
<path d="M28.5 20.5H26.5" stroke="#1B1B1B" stroke-width="4.5" stroke-linecap="round" stroke-linejoin="round"/>
<path d="M12.5 20.5H14.5" stroke="#1B1B1B" stroke-width="4.5" stroke-linecap="round" stroke-linejoin="round"/>
<path d="M48.5 12.5C50.5256 13.5129 52.0188 15.3468 52.6001 17.5357C53.1814 19.7246 52.7948 22.0577 51.5386 23.9421L48.5 28.5" stroke="#1B1B1B" stroke-width="4.5" stroke-linecap="round" stroke-linejoin="round"/>
<path d="M68.5 48.4999L73.0579 45.4613C74.9423 44.2051 77.2754 43.8185 79.4643 44.3998C81.6532 44.9811 83.4871 46.4743 84.5 48.4999" stroke="#1B1B1B" stroke-width="4.5" stroke-linecap="round" stroke-linejoin="round"/>
<path d="M76.5 68.5V70.5" stroke="#1B1B1B" stroke-width="4.5" stroke-linecap="round" stroke-linejoin="round"/>
<path d="M76.5 84.5V82.5" stroke="#1B1B1B" stroke-width="4.5" stroke-linecap="round" stroke-linejoin="round"/>
<path d="M84.5 76.5H82.5" stroke="#1B1B1B" stroke-width="4.5" stroke-linecap="round" stroke-linejoin="round"/>
<path d="M68.5 76.5H70.5" stroke="#1B1B1B" stroke-width="4.5" stroke-linecap="round" stroke-linejoin="round"/>
<path d="M76.5 12.5V14.5" stroke="#1B1B1B" stroke-width="4.5" stroke-linecap="round" stroke-linejoin="round"/>
<path d="M76.5 28.5V26.5" stroke="#1B1B1B" stroke-width="4.5" stroke-linecap="round" stroke-linejoin="round"/>
<path d="M84.5 20.5H82.5" stroke="#1B1B1B" stroke-width="4.5" stroke-linecap="round" stroke-linejoin="round"/>
<path d="M68.5 20.5H70.5" stroke="#1B1B1B" stroke-width="4.5" stroke-linecap="round" stroke-linejoin="round"/>
<path d="M56.5 40.5L60.5 36.5" stroke="#1B1B1B" stroke-width="4.5" stroke-linecap="round" stroke-linejoin="round"/>
</svg>
