<svg width="64" height="64" viewBox="0 0 64 64" fill="none" xmlns="http://www.w3.org/2000/svg">
<rect width="64" height="64" rx="32" fill="#FDE8A9"/>
<path fill-rule="evenodd" clip-rule="evenodd" d="M40.9413 21.3916C41.1083 21.2275 41.1985 21.0007 41.19 20.7668C41.1815 20.5328 41.075 20.3132 40.8966 20.1616C35.7143 15.9461 28.2849 15.9461 23.1026 20.1616C22.9241 20.3132 22.8177 20.5328 22.8091 20.7668C22.8006 21.0007 22.8909 21.2275 23.0579 21.3916L24.8332 23.1669C25.1372 23.4632 25.6145 23.486 25.9454 23.2201C29.5172 20.4821 34.4821 20.4821 38.054 23.2201C38.3848 23.486 38.8621 23.4631 39.1661 23.1669L40.9413 21.3916Z" stroke="#333333" stroke-width="3" stroke-linecap="round" stroke-linejoin="round"/>
<path fill-rule="evenodd" clip-rule="evenodd" d="M18.5607 43.7208L17.5325 41.5157C16.8962 40.1512 16.828 38.5897 17.343 37.1749C17.8579 35.76 18.9138 34.6077 20.2784 33.9714V33.9714C21.9022 33.2142 23.8323 33.9167 24.5895 35.5405L27.6742 42.1557C28.4314 43.7794 27.7289 45.7096 26.1051 46.4667V46.4667C23.2635 47.7918 19.8858 46.5624 18.5607 43.7208Z" stroke="#333333" stroke-width="3" stroke-linecap="round" stroke-linejoin="round"/>
<path fill-rule="evenodd" clip-rule="evenodd" d="M36.3251 42.1556L39.4098 35.5404C40.167 33.9167 42.0971 33.2142 43.7209 33.9713V33.9713C46.5625 35.2964 47.7919 38.6741 46.4668 41.5157L45.4386 43.7208C44.8022 45.0853 43.6499 46.1413 42.2351 46.6562C40.8202 47.1712 39.2588 47.103 37.8942 46.4667V46.4667C36.2704 45.7095 35.5679 43.7794 36.3251 42.1556L36.3251 42.1556Z" stroke="#333333" stroke-width="3" stroke-linecap="round" stroke-linejoin="round"/>
<path d="M45.5441 35.3223C47.326 29.51 45.2009 23.2087 40.2628 19.6627C35.3247 16.1167 28.6746 16.1167 23.7365 19.6627C18.7984 23.2087 16.6732 29.51 18.4552 35.3223" stroke="#333333" stroke-width="3" stroke-linecap="round" stroke-linejoin="round"/>
</svg>
