<svg width="372" height="104" viewBox="0 0 372 104" fill="none" xmlns="http://www.w3.org/2000/svg">
<path d="M21.9933 40L10 52.036L22 64" stroke="white" stroke-width="3.5" stroke-linecap="round" stroke-linejoin="round"/>
<path d="M42.9933 40L31 52.036L43 64" stroke="white" stroke-width="3.5" stroke-linecap="round" stroke-linejoin="round"/>
<path d="M63.9933 40L52 52.036L64 64" stroke="white" stroke-width="3.5" stroke-linecap="round" stroke-linejoin="round"/>
<path d="M84.9933 40L73 52.036L85 64" stroke="white" stroke-width="3.5" stroke-linecap="round" stroke-linejoin="round"/>
<path fill-rule="evenodd" clip-rule="evenodd" d="M201.994 42H170.006C167.796 42 166.006 40.21 166.006 38V10C166.006 7.79 167.796 6 170.006 6H201.994C204.204 6 205.994 7.79 205.994 10V38C205.994 40.21 204.202 42 201.994 42Z" stroke="#FAFAFA" stroke-width="3" stroke-linecap="round" stroke-linejoin="round"/>
<path d="M180.828 15.1716C182.391 16.7337 182.391 19.2663 180.828 20.8284C179.266 22.3905 176.734 22.3905 175.172 20.8284C173.609 19.2663 173.609 16.7337 175.172 15.1716C176.734 13.6095 179.266 13.6095 180.828 15.1716" stroke="#FAFAFA" stroke-width="3" stroke-linecap="round" stroke-linejoin="round"/>
<path d="M206 31.9999L197.562 25.2499C196.7 24.5599 195.44 24.6999 194.75 25.5619L188.078 33.9019C187.388 34.7639 186.13 34.9039 185.266 34.2139L181.53 31.2239C180.68 30.5439 179.442 30.6679 178.744 31.5059L170 41.9999" stroke="#FAFAFA" stroke-width="3" stroke-linecap="round" stroke-linejoin="round"/>
<path d="M108.116 74H106.676C106.388 74 106.196 73.88 106.196 73.52V66.344C106.196 66.248 106.076 66.224 106.052 66.344L105.764 67.616C105.692 67.952 105.524 67.952 105.212 67.952H104.66C104.42 67.952 104.252 67.952 104.18 67.616L103.892 66.344C103.868 66.224 103.748 66.248 103.748 66.344V73.52C103.748 73.88 103.628 74 103.268 74H101.828C101.468 74 101.348 73.88 101.348 73.52V57.68C101.348 57.32 101.468 57.2 101.828 57.2H103.028C103.316 57.2 103.436 57.272 103.484 57.488L104.876 62.984C104.9 63.104 105.044 63.104 105.068 62.984L106.46 57.44C106.508 57.272 106.652 57.2 106.916 57.2H108.116C108.476 57.2 108.596 57.32 108.596 57.68V73.52C108.596 73.88 108.452 74 108.116 74ZM116.284 69.2C116.284 72.8 115.804 74 113.404 74C111.004 74 110.524 72.824 110.524 69.2V62C110.524 58.376 111.004 57.2 113.404 57.2C115.804 57.2 116.284 58.4 116.284 62V69.2ZM113.884 61.04C113.884 59.816 113.884 59.336 113.404 59.336C112.924 59.336 112.924 59.84 112.924 61.04V70.16C112.924 71.36 112.924 71.864 113.404 71.864C113.884 71.864 113.884 71.384 113.884 70.16V61.04ZM122.741 57.2H124.181C124.421 57.2 124.637 57.2 124.589 57.608L122.285 73.568C122.213 73.928 122.141 74 121.757 74H120.461C120.077 74 120.005 73.928 119.933 73.568L117.629 57.608C117.581 57.2 117.797 57.2 118.037 57.2H119.477C119.789 57.2 119.957 57.2 120.005 57.56L121.013 64.376C121.037 64.496 121.181 64.496 121.205 64.376L122.213 57.56C122.261 57.2 122.429 57.2 122.741 57.2ZM126.659 74C126.419 74 126.179 74 126.179 73.52V57.68C126.179 57.32 126.299 57.2 126.659 57.2H130.283C130.643 57.2 130.763 57.32 130.763 57.68V58.976C130.763 59.336 130.643 59.456 130.283 59.456H129.059C128.579 59.456 128.579 59.456 128.579 59.936V63.536C128.579 64.016 128.579 64.016 129.059 64.016H130.283C130.643 64.016 130.763 64.136 130.763 64.496V65.792C130.763 66.152 130.643 66.272 130.283 66.272H129.059C128.579 66.272 128.579 66.272 128.579 66.752V71.264C128.579 71.744 128.579 71.744 129.059 71.744H130.283C130.643 71.744 130.763 71.864 130.763 72.224V73.52C130.763 73.88 130.643 74 130.283 74H126.659ZM140.079 74C139.839 74 139.599 74 139.599 73.52V68.168C139.599 67.928 137.631 57.68 137.631 57.68C137.583 57.416 137.631 57.2 137.943 57.2H139.479C139.911 57.2 139.959 57.32 140.031 57.68L140.727 62C140.751 62.144 140.919 62.144 140.943 62L141.663 57.68C141.735 57.32 141.735 57.2 142.215 57.2H143.655C144.135 57.2 144.111 57.44 144.063 57.68C144.063 57.68 141.999 67.928 141.999 68.168V73.52C141.999 74 141.759 74 141.519 74H140.079ZM150.957 69.2C150.957 72.8 150.477 74 148.077 74C145.677 74 145.197 72.824 145.197 69.2V62C145.197 58.376 145.677 57.2 148.077 57.2C150.477 57.2 150.957 58.4 150.957 62V69.2ZM148.557 61.04C148.557 59.816 148.557 59.336 148.077 59.336C147.597 59.336 147.597 59.84 147.597 61.04V70.16C147.597 71.36 147.597 71.864 148.077 71.864C148.557 71.864 148.557 71.384 148.557 70.16V61.04ZM156.233 57.68C156.233 57.32 156.353 57.2 156.713 57.2H158.153C158.513 57.2 158.633 57.32 158.633 57.68V69.2C158.633 72.8 158.153 74 155.753 74C153.353 74 152.873 72.824 152.873 69.2V57.68C152.873 57.32 152.993 57.2 153.353 57.2H154.793C155.153 57.2 155.273 57.32 155.273 57.68V70.16C155.273 71.36 155.273 71.864 155.753 71.864C156.233 71.864 156.233 71.384 156.233 70.16V57.68ZM166.308 62.96C166.308 65.048 166.14 66.32 165.54 67.016L166.284 73.496C166.332 73.88 166.14 74 165.948 74H164.556C164.244 74 164.076 74 164.028 73.64L163.308 67.736C162.972 67.736 162.948 67.784 162.948 68.216V73.52C162.948 73.88 162.804 74 162.468 74H161.028C160.644 74 160.548 73.88 160.548 73.52V57.68C160.548 57.32 160.668 57.2 161.028 57.2H163.428C165.828 57.2 166.308 58.4 166.308 62V62.96ZM162.948 65.264C162.948 65.6 162.948 65.6 163.284 65.6C163.86 65.6 163.908 65.336 163.908 63.896V61.04C163.908 59.6 163.86 59.336 163.284 59.336C162.948 59.336 162.948 59.336 162.948 59.672V65.264ZM175.908 61.04V70.16C175.908 71.36 175.908 71.864 176.388 71.864C176.868 71.864 176.868 71.384 176.868 70.16V68.72C176.868 68.36 176.988 68.24 177.348 68.24H178.788C179.148 68.24 179.268 68.36 179.268 68.72V69.2C179.268 72.8 178.788 74 176.388 74C173.988 74 173.508 72.824 173.508 69.2V62C173.508 58.376 173.988 57.2 176.388 57.2C178.788 57.2 179.268 58.4 179.268 62V62.48C179.268 62.84 179.148 62.96 178.788 62.96H177.348C176.988 62.96 176.868 62.84 176.868 62.48V61.04C176.868 59.816 176.868 59.336 176.388 59.336C175.908 59.336 175.908 59.84 175.908 61.04ZM186.69 74H185.25C184.938 74 184.77 74 184.722 73.64L184.554 72.2C184.506 71.864 184.482 71.864 184.05 71.864H183.45C182.994 71.864 182.97 71.864 182.922 72.2L182.754 73.64C182.706 74 182.538 74 182.226 74H180.786C180.546 74 180.33 74 180.378 73.592L182.562 57.632C182.634 57.272 182.706 57.2 183.09 57.2H184.386C184.77 57.2 184.842 57.272 184.914 57.632L187.098 73.592C187.17 74 186.93 74 186.69 74ZM183.642 64.592L183.138 69.128C183.114 69.608 183.066 69.608 183.546 69.608H183.93C184.41 69.608 184.362 69.608 184.338 69.128L183.834 64.592C183.81 64.472 183.666 64.472 183.642 64.592ZM195.439 74H193.999C193.711 74 193.519 73.88 193.519 73.52V66.344C193.519 66.248 193.399 66.224 193.375 66.344L193.087 67.616C193.015 67.952 192.847 67.952 192.535 67.952H191.983C191.743 67.952 191.575 67.952 191.503 67.616L191.215 66.344C191.191 66.224 191.071 66.248 191.071 66.344V73.52C191.071 73.88 190.951 74 190.591 74H189.151C188.791 74 188.671 73.88 188.671 73.52V57.68C188.671 57.32 188.791 57.2 189.151 57.2H190.351C190.639 57.2 190.759 57.272 190.807 57.488L192.199 62.984C192.223 63.104 192.367 63.104 192.391 62.984L193.783 57.44C193.831 57.272 193.975 57.2 194.239 57.2H195.439C195.799 57.2 195.919 57.32 195.919 57.68V73.52C195.919 73.88 195.775 74 195.439 74ZM198.326 74C198.086 74 197.846 74 197.846 73.52V57.68C197.846 57.32 197.966 57.2 198.326 57.2H201.95C202.31 57.2 202.43 57.32 202.43 57.68V58.976C202.43 59.336 202.31 59.456 201.95 59.456H200.726C200.246 59.456 200.246 59.456 200.246 59.936V63.536C200.246 64.016 200.246 64.016 200.726 64.016H201.95C202.31 64.016 202.43 64.136 202.43 64.496V65.792C202.43 66.152 202.31 66.272 201.95 66.272H200.726C200.246 66.272 200.246 66.272 200.246 66.752V71.264C200.246 71.744 200.246 71.744 200.726 71.744H201.95C202.31 71.744 202.43 71.864 202.43 72.224V73.52C202.43 73.88 202.31 74 201.95 74H198.326ZM210.11 62.96C210.11 65.048 209.942 66.32 209.342 67.016L210.086 73.496C210.134 73.88 209.942 74 209.75 74H208.358C208.046 74 207.878 74 207.83 73.64L207.11 67.736C206.774 67.736 206.75 67.784 206.75 68.216V73.52C206.75 73.88 206.606 74 206.27 74H204.83C204.446 74 204.35 73.88 204.35 73.52V57.68C204.35 57.32 204.47 57.2 204.83 57.2H207.23C209.63 57.2 210.11 58.4 210.11 62V62.96ZM206.75 65.264C206.75 65.6 206.75 65.6 207.086 65.6C207.662 65.6 207.71 65.336 207.71 63.896V61.04C207.71 59.6 207.662 59.336 207.086 59.336C206.75 59.336 206.75 59.336 206.75 59.672V65.264ZM217.767 74H216.327C216.015 74 215.847 74 215.799 73.64L215.631 72.2C215.583 71.864 215.559 71.864 215.127 71.864H214.527C214.071 71.864 214.047 71.864 213.999 72.2L213.831 73.64C213.783 74 213.615 74 213.303 74H211.863C211.623 74 211.407 74 211.455 73.592L213.639 57.632C213.711 57.272 213.783 57.2 214.167 57.2H215.463C215.847 57.2 215.919 57.272 215.991 57.632L218.175 73.592C218.247 74 218.007 74 217.767 74ZM214.719 64.592L214.215 69.128C214.191 69.608 214.143 69.608 214.623 69.608H215.007C215.487 69.608 215.439 69.608 215.415 69.128L214.911 64.592C214.887 64.472 214.743 64.472 214.719 64.592ZM231.008 74H229.568C229.256 74 229.088 74 229.04 73.64L228.872 72.2C228.824 71.864 228.8 71.864 228.368 71.864H227.768C227.312 71.864 227.288 71.864 227.24 72.2L227.072 73.64C227.024 74 226.856 74 226.544 74H225.104C224.864 74 224.648 74 224.696 73.592L226.88 57.632C226.952 57.272 227.024 57.2 227.408 57.2H228.704C229.088 57.2 229.16 57.272 229.232 57.632L231.416 73.592C231.488 74 231.248 74 231.008 74ZM227.96 64.592L227.456 69.128C227.432 69.608 227.384 69.608 227.864 69.608H228.248C228.728 69.608 228.68 69.608 228.656 69.128L228.152 64.592C228.128 64.472 227.984 64.472 227.96 64.592ZM238.748 62.96C238.748 65.048 238.58 66.32 237.98 67.016L238.724 73.496C238.772 73.88 238.58 74 238.388 74H236.996C236.684 74 236.516 74 236.468 73.64L235.748 67.736C235.412 67.736 235.388 67.784 235.388 68.216V73.52C235.388 73.88 235.244 74 234.908 74H233.468C233.084 74 232.988 73.88 232.988 73.52V57.68C232.988 57.32 233.108 57.2 233.468 57.2H235.868C238.268 57.2 238.748 58.4 238.748 62V62.96ZM235.388 65.264C235.388 65.6 235.388 65.6 235.724 65.6C236.3 65.6 236.348 65.336 236.348 63.896V61.04C236.348 59.6 236.3 59.336 235.724 59.336C235.388 59.336 235.388 59.336 235.388 59.672V65.264ZM246.424 69.2C246.424 72.8 245.944 74 243.544 74C241.144 74 240.664 72.824 240.664 69.2V62C240.664 58.376 241.144 57.2 243.544 57.2C245.944 57.2 246.424 58.4 246.424 62V69.2ZM244.024 61.04C244.024 59.816 244.024 59.336 243.544 59.336C243.064 59.336 243.064 59.84 243.064 61.04V70.16C243.064 71.36 243.064 71.864 243.544 71.864C244.024 71.864 244.024 71.384 244.024 70.16V61.04ZM251.699 57.68C251.699 57.32 251.819 57.2 252.179 57.2H253.619C253.979 57.2 254.099 57.32 254.099 57.68V69.2C254.099 72.8 253.619 74 251.219 74C248.819 74 248.339 72.824 248.339 69.2V57.68C248.339 57.32 248.459 57.2 248.819 57.2H250.259C250.619 57.2 250.739 57.32 250.739 57.68V70.16C250.739 71.36 250.739 71.864 251.219 71.864C251.699 71.864 251.699 71.384 251.699 70.16V57.68ZM260.814 74C260.598 74 260.406 74 260.334 73.712L258.606 67.088C258.582 66.944 258.414 66.968 258.414 67.088V73.52C258.414 73.88 258.294 74 257.934 74H256.494C256.134 74 256.014 73.88 256.014 73.52V57.68C256.014 57.32 256.134 57.2 256.494 57.2H257.694C257.958 57.2 258.078 57.2 258.174 57.512L259.902 64.088C259.926 64.232 260.094 64.208 260.094 64.088V57.68C260.094 57.32 260.214 57.2 260.574 57.2H262.014C262.374 57.2 262.494 57.32 262.494 57.68V73.52C262.494 73.88 262.374 74 262.014 74H260.814ZM264.416 73.52V57.68C264.416 57.32 264.536 57.2 264.896 57.2H267.296C269.696 57.2 270.176 58.4 270.176 62V69.2C270.176 72.8 269.696 74 267.296 74H264.896C264.656 74 264.416 74 264.416 73.52ZM266.816 71.528C266.816 71.864 266.816 71.864 267.152 71.864C267.728 71.864 267.776 71.6 267.776 70.16V61.04C267.776 59.6 267.728 59.336 267.152 59.336C266.816 59.336 266.816 59.336 266.816 59.672V71.528ZM110.187 81.68C110.187 81.44 110.187 81.2 110.667 81.2H115.467C115.827 81.2 115.947 81.32 115.947 81.68V82.976C115.947 83.336 115.827 83.456 115.467 83.456H114.747C114.267 83.456 114.267 83.456 114.267 83.936V97.52C114.267 98 114.027 98 113.787 98H112.347C112.107 98 111.867 98 111.867 97.52V83.936C111.867 83.456 111.867 83.456 111.411 83.456H110.667C110.187 83.456 110.187 83.216 110.187 82.976V81.68ZM122.787 93.2C122.787 96.8 122.307 98 119.907 98C117.507 98 117.027 96.824 117.027 93.2V86C117.027 82.376 117.507 81.2 119.907 81.2C122.307 81.2 122.787 82.4 122.787 86V93.2ZM120.387 85.04C120.387 83.816 120.387 83.336 119.907 83.336C119.427 83.336 119.427 83.84 119.427 85.04V94.16C119.427 95.36 119.427 95.864 119.907 95.864C120.387 95.864 120.387 95.384 120.387 94.16V85.04ZM130.467 98C130.227 98 129.987 98 129.987 97.52V81.68C129.987 81.32 130.107 81.2 130.467 81.2H134.091C134.451 81.2 134.571 81.32 134.571 81.68V82.976C134.571 83.336 134.451 83.456 134.091 83.456H132.867C132.387 83.456 132.387 83.456 132.387 83.936V87.536C132.387 88.016 132.387 88.016 132.867 88.016H133.347C133.707 88.016 133.827 88.136 133.827 88.496V89.792C133.827 90.152 133.707 90.272 133.347 90.272H132.867C132.387 90.272 132.387 90.272 132.387 90.752V97.52C132.387 98 132.147 98 131.907 98H130.467ZM136.619 98C136.379 98 136.139 98 136.139 97.52V81.68C136.139 81.32 136.259 81.2 136.619 81.2H138.059C138.419 81.2 138.539 81.32 138.539 81.68V97.52C138.539 98 138.299 98 138.059 98H136.619ZM145.263 98C145.047 98 144.855 98 144.783 97.712L143.055 91.088C143.031 90.944 142.863 90.968 142.863 91.088V97.52C142.863 97.88 142.743 98 142.383 98H140.943C140.583 98 140.463 97.88 140.463 97.52V81.68C140.463 81.32 140.583 81.2 140.943 81.2H142.143C142.407 81.2 142.527 81.2 142.623 81.512L144.351 88.088C144.375 88.232 144.543 88.208 144.543 88.088V81.68C144.543 81.32 144.663 81.2 145.023 81.2H146.463C146.823 81.2 146.943 81.32 146.943 81.68V97.52C146.943 97.88 146.823 98 146.463 98H145.263ZM148.865 97.52V81.68C148.865 81.32 148.985 81.2 149.345 81.2H151.745C154.145 81.2 154.625 82.4 154.625 86V93.2C154.625 96.8 154.145 98 151.745 98H149.345C149.105 98 148.865 98 148.865 97.52ZM151.265 95.528C151.265 95.864 151.265 95.864 151.601 95.864C152.177 95.864 152.225 95.6 152.225 94.16V85.04C152.225 83.6 152.177 83.336 151.601 83.336C151.265 83.336 151.265 83.336 151.265 83.672V95.528ZM161.465 81.68C161.465 81.44 161.465 81.2 161.945 81.2H166.745C167.105 81.2 167.225 81.32 167.225 81.68V82.976C167.225 83.336 167.105 83.456 166.745 83.456H166.025C165.545 83.456 165.545 83.456 165.545 83.936V97.52C165.545 98 165.305 98 165.065 98H163.625C163.385 98 163.145 98 163.145 97.52V83.936C163.145 83.456 163.145 83.456 162.689 83.456H161.945C161.465 83.456 161.465 83.216 161.465 82.976V81.68ZM172.613 98C172.373 98 172.133 98 172.133 97.52V90.752C172.133 90.272 172.133 90.272 171.653 90.272C171.173 90.272 171.173 90.272 171.173 90.752V97.52C171.173 98 170.933 98 170.693 98H169.253C169.013 98 168.773 98 168.773 97.52V81.68C168.773 81.32 168.893 81.2 169.253 81.2H170.693C171.053 81.2 171.173 81.32 171.173 81.68V87.536C171.173 88.016 171.173 88.016 171.653 88.016C172.133 88.016 172.133 88.016 172.133 87.536V81.68C172.133 81.32 172.253 81.2 172.613 81.2H174.053C174.413 81.2 174.533 81.32 174.533 81.68V97.52C174.533 98 174.293 98 174.053 98H172.613ZM176.929 98C176.689 98 176.449 98 176.449 97.52V81.68C176.449 81.32 176.569 81.2 176.929 81.2H180.553C180.913 81.2 181.033 81.32 181.033 81.68V82.976C181.033 83.336 180.913 83.456 180.553 83.456H179.329C178.849 83.456 178.849 83.456 178.849 83.936V87.536C178.849 88.016 178.849 88.016 179.329 88.016H180.553C180.913 88.016 181.033 88.136 181.033 88.496V89.792C181.033 90.152 180.913 90.272 180.553 90.272H179.329C178.849 90.272 178.849 90.272 178.849 90.752V95.264C178.849 95.744 178.849 95.744 179.329 95.744H180.553C180.913 95.744 181.033 95.864 181.033 96.224V97.52C181.033 97.88 180.913 98 180.553 98H176.929ZM193.997 87.632C193.997 91.208 193.517 92.408 191.117 92.408C190.637 92.408 190.637 92.408 190.637 92.888V97.52C190.637 97.88 190.493 98 190.157 98H188.717C188.333 98 188.237 97.88 188.237 97.52V81.68C188.237 81.32 188.357 81.2 188.717 81.2H191.117C193.517 81.2 193.997 82.4 193.997 86V87.632ZM190.637 89.936C190.637 90.272 190.637 90.272 190.973 90.272C191.549 90.272 191.597 90.008 191.597 88.568V85.04C191.597 83.6 191.549 83.336 190.973 83.336C190.637 83.336 190.637 83.336 190.637 83.672V89.936ZM199.752 98C199.512 98 199.272 98 199.272 97.52V90.752C199.272 90.272 199.272 90.272 198.792 90.272C198.312 90.272 198.312 90.272 198.312 90.752V97.52C198.312 98 198.072 98 197.832 98H196.392C196.152 98 195.912 98 195.912 97.52V81.68C195.912 81.32 196.032 81.2 196.392 81.2H197.832C198.192 81.2 198.312 81.32 198.312 81.68V87.536C198.312 88.016 198.312 88.016 198.792 88.016C199.272 88.016 199.272 88.016 199.272 87.536V81.68C199.272 81.32 199.392 81.2 199.752 81.2H201.192C201.552 81.2 201.672 81.32 201.672 81.68V97.52C201.672 98 201.432 98 201.192 98H199.752ZM209.348 93.2C209.348 96.8 208.868 98 206.468 98C204.068 98 203.588 96.824 203.588 93.2V86C203.588 82.376 204.068 81.2 206.468 81.2C208.868 81.2 209.348 82.4 209.348 86V93.2ZM206.948 85.04C206.948 83.816 206.948 83.336 206.468 83.336C205.988 83.336 205.988 83.84 205.988 85.04V94.16C205.988 95.36 205.988 95.864 206.468 95.864C206.948 95.864 206.948 95.384 206.948 94.16V85.04ZM210.434 81.68C210.434 81.44 210.434 81.2 210.914 81.2H215.714C216.074 81.2 216.194 81.32 216.194 81.68V82.976C216.194 83.336 216.074 83.456 215.714 83.456H214.994C214.514 83.456 214.514 83.456 214.514 83.936V97.52C214.514 98 214.274 98 214.034 98H212.594C212.354 98 212.114 98 212.114 97.52V83.936C212.114 83.456 212.114 83.456 211.658 83.456H210.914C210.434 83.456 210.434 83.216 210.434 82.976V81.68ZM223.034 93.2C223.034 96.8 222.554 98 220.154 98C217.754 98 217.274 96.824 217.274 93.2V86C217.274 82.376 217.754 81.2 220.154 81.2C222.554 81.2 223.034 82.4 223.034 86V93.2ZM220.634 85.04C220.634 83.816 220.634 83.336 220.154 83.336C219.674 83.336 219.674 83.84 219.674 85.04V94.16C219.674 95.36 219.674 95.864 220.154 95.864C220.634 95.864 220.634 95.384 220.634 94.16V85.04ZM227.685 88.496C227.685 88.136 227.805 88.016 228.165 88.016H230.229C230.589 88.016 230.709 88.136 230.709 88.496V93.2C230.709 96.8 230.229 98 227.829 98C225.429 98 224.949 96.824 224.949 93.2V86C224.949 82.376 225.429 81.2 227.829 81.2C230.397 81.2 230.685 82.928 230.685 85.52C230.685 85.88 230.565 86 230.205 86H228.789C228.429 86 228.309 85.88 228.309 85.52C228.309 83.84 228.309 83.336 227.829 83.336C227.349 83.336 227.349 83.84 227.349 85.04V94.16C227.349 95.36 227.349 95.864 227.829 95.864C228.309 95.864 228.309 95.384 228.309 94.16V90.392C228.309 90.272 228.237 90.272 228.165 90.272C227.805 90.272 227.685 90.152 227.685 89.792V88.496ZM238.385 86.96C238.385 89.048 238.217 90.32 237.617 91.016L238.361 97.496C238.409 97.88 238.217 98 238.025 98H236.633C236.321 98 236.153 98 236.105 97.64L235.385 91.736C235.049 91.736 235.025 91.784 235.025 92.216V97.52C235.025 97.88 234.881 98 234.545 98H233.105C232.721 98 232.625 97.88 232.625 97.52V81.68C232.625 81.32 232.745 81.2 233.105 81.2H235.505C237.905 81.2 238.385 82.4 238.385 86V86.96ZM235.025 89.264C235.025 89.6 235.025 89.6 235.361 89.6C235.937 89.6 235.985 89.336 235.985 87.896V85.04C235.985 83.6 235.937 83.336 235.361 83.336C235.025 83.336 235.025 83.336 235.025 83.672V89.264ZM246.042 98H244.602C244.29 98 244.122 98 244.074 97.64L243.906 96.2C243.858 95.864 243.834 95.864 243.402 95.864H242.802C242.346 95.864 242.322 95.864 242.274 96.2L242.106 97.64C242.058 98 241.89 98 241.578 98H240.138C239.898 98 239.682 98 239.73 97.592L241.914 81.632C241.986 81.272 242.058 81.2 242.442 81.2H243.738C244.122 81.2 244.194 81.272 244.266 81.632L246.45 97.592C246.522 98 246.282 98 246.042 98ZM242.994 88.592L242.49 93.128C242.466 93.608 242.418 93.608 242.898 93.608H243.282C243.762 93.608 243.714 93.608 243.69 93.128L243.186 88.592C243.162 88.472 243.018 88.472 242.994 88.592ZM253.782 87.632C253.782 91.208 253.302 92.408 250.902 92.408C250.422 92.408 250.422 92.408 250.422 92.888V97.52C250.422 97.88 250.278 98 249.942 98H248.502C248.118 98 248.022 97.88 248.022 97.52V81.68C248.022 81.32 248.142 81.2 248.502 81.2H250.902C253.302 81.2 253.782 82.4 253.782 86V87.632ZM250.422 89.936C250.422 90.272 250.422 90.272 250.758 90.272C251.334 90.272 251.382 90.008 251.382 88.568V85.04C251.382 83.6 251.334 83.336 250.758 83.336C250.422 83.336 250.422 83.336 250.422 83.672V89.936ZM259.538 98C259.298 98 259.058 98 259.058 97.52V90.752C259.058 90.272 259.058 90.272 258.578 90.272C258.098 90.272 258.098 90.272 258.098 90.752V97.52C258.098 98 257.858 98 257.618 98H256.178C255.938 98 255.698 98 255.698 97.52V81.68C255.698 81.32 255.818 81.2 256.178 81.2H257.618C257.978 81.2 258.098 81.32 258.098 81.68V87.536C258.098 88.016 258.098 88.016 258.578 88.016C259.058 88.016 259.058 88.016 259.058 87.536V81.68C259.058 81.32 259.178 81.2 259.538 81.2H260.978C261.338 81.2 261.458 81.32 261.458 81.68V97.52C261.458 98 261.218 98 260.978 98H259.538Z" fill="white"/>
<path d="M350.007 40L362 52.036L350 64" stroke="white" stroke-width="3.5" stroke-linecap="round" stroke-linejoin="round"/>
<path d="M329.007 40L341 52.036L329 64" stroke="white" stroke-width="3.5" stroke-linecap="round" stroke-linejoin="round"/>
<path d="M308.007 40L320 52.036L308 64" stroke="white" stroke-width="3.5" stroke-linecap="round" stroke-linejoin="round"/>
<path d="M287.007 40L299 52.036L287 64" stroke="white" stroke-width="3.5" stroke-linecap="round" stroke-linejoin="round"/>
</svg>
