<?xml version="1.0" encoding="utf-8"?>
<!-- Generator: Adobe Illustrator 27.8.0, SVG Export Plug-In . SVG Version: 6.00 Build 0)  -->
<svg version="1.1" xmlns="http://www.w3.org/2000/svg" xmlns:xlink="http://www.w3.org/1999/xlink" x="0px" y="0px"
	 viewBox="0 0 372 104" style="enable-background:new 0 0 372 104;" xml:space="preserve">
<style type="text/css">
	.st0{display:none;}
	.st1{display:inline;fill:#575757;}
	.st2{fill:#FFFFFF;stroke:#000000;stroke-width:0.25;stroke-miterlimit:10;}
	.st3{fill:none;stroke:#FFFFFF;stroke-width:3.5;stroke-linecap:round;stroke-linejoin:round;}
	.st4{fill:#FAFAFA;stroke:#000000;stroke-width:0.25;stroke-miterlimit:10;}
</style>
<g id="Layer_2" class="st0">
	<rect x="-1.2" y="-1.2" class="st1" width="375" height="106.1"/>
</g>
<g id="Layer_1">
	<g>
		<path class="st2" d="M22,65.8c-0.4,0-0.9-0.2-1.2-0.5l-12-12c-0.7-0.7-0.7-1.8,0-2.5l12-12c0.7-0.7,1.8-0.7,2.5,0
			c0.7,0.7,0.7,1.8,0,2.5L12.5,52l10.8,10.7c0.7,0.7,0.7,1.8,0,2.5C22.9,65.6,22.4,65.8,22,65.8z"/>
	</g>
	<g>
		<path class="st2" d="M43,65.8c-0.4,0-0.9-0.2-1.2-0.5l-12-12c-0.7-0.7-0.7-1.8,0-2.5l12-12c0.7-0.7,1.8-0.7,2.5,0
			c0.7,0.7,0.7,1.8,0,2.5L33.5,52l10.8,10.7c0.7,0.7,0.7,1.8,0,2.5C43.9,65.6,43.4,65.8,43,65.8z"/>
	</g>
	<g>
		<path class="st2" d="M64,65.8c-0.4,0-0.9-0.2-1.2-0.5l-12-12c-0.7-0.7-0.7-1.8,0-2.5l12-12c0.7-0.7,1.8-0.7,2.5,0
			c0.7,0.7,0.7,1.8,0,2.5L54.5,52l10.8,10.7c0.7,0.7,0.7,1.8,0,2.5C64.9,65.6,64.4,65.8,64,65.8z"/>
	</g>
	<path class="st3" d="M85,40L73,52l12,12"/>
	<g>
		<path class="st4" d="M178,23.5c-1.4,0-2.8-0.5-3.9-1.6c-1-1-1.6-2.4-1.6-3.9c0-1.5,0.6-2.9,1.6-3.9c2.1-2.1,5.6-2.1,7.8,0
			c1,1,1.6,2.4,1.6,3.9s-0.6,2.9-1.6,3.9C180.8,23,179.4,23.5,178,23.5z M178,15.5c-0.6,0-1.3,0.2-1.8,0.7c-0.5,0.5-0.7,1.1-0.7,1.8
			c0,0.7,0.3,1.3,0.7,1.8c1,1,2.6,1,3.5,0c0.5-0.5,0.7-1.1,0.7-1.8c0-0.7-0.3-1.3-0.7-1.8v0C179.3,15.7,178.6,15.5,178,15.5z"/>
	</g>
	<g>
		<path class="st2" d="M207.5,32.1V10c0-3-2.5-5.5-5.5-5.5h-32c-3,0-5.5,2.5-5.5,5.5v28c0,3,2.5,5.5,5.5,5.5c0,0,0,0,0,0
			c0,0,0,0,0,0c0,0,0,0,0,0h32c3,0,5.5-2.5,5.5-5.5V32.1C207.5,32.1,207.5,32.1,207.5,32.1z M167.5,38V10c0-1.4,1.1-2.5,2.5-2.5h32
			c1.4,0,2.5,1.1,2.5,2.5v18.9l-6-4.8c-1.5-1.2-3.7-1-4.9,0.5l-6.7,8.3c-0.2,0.2-0.5,0.3-0.7,0.1l-3.7-3c-1.5-1.2-3.7-1-4.9,0.5
			l-8.2,9.9C168.3,40.1,167.5,39.2,167.5,38z M202,40.5h-28.8l6.7-8c0.2-0.2,0.5-0.2,0.7-0.1l3.7,3c1.5,1.2,3.7,1,4.9-0.5l6.7-8.3
			c0.2-0.2,0.5-0.3,0.7-0.1l7.9,6.3V38C204.5,39.4,203.4,40.5,202,40.5z"/>
	</g>
	<path class="st2" d="M108.1,74h-1.4c-0.3,0-0.5-0.1-0.5-0.5v-7.2c0-0.1-0.1-0.1-0.1,0l-0.3,1.3c-0.1,0.3-0.2,0.3-0.6,0.3h-0.6
		c-0.2,0-0.4,0-0.5-0.3l-0.3-1.3c0-0.1-0.1-0.1-0.1,0v7.2c0,0.4-0.1,0.5-0.5,0.5h-1.4c-0.4,0-0.5-0.1-0.5-0.5V57.7
		c0-0.4,0.1-0.5,0.5-0.5h1.2c0.3,0,0.4,0.1,0.5,0.3l1.4,5.5c0,0.1,0.2,0.1,0.2,0l1.4-5.5c0-0.2,0.2-0.2,0.5-0.2h1.2
		c0.4,0,0.5,0.1,0.5,0.5v15.8C108.6,73.9,108.5,74,108.1,74z M116.3,69.2c0,3.6-0.5,4.8-2.9,4.8s-2.9-1.2-2.9-4.8V62
		c0-3.6,0.5-4.8,2.9-4.8s2.9,1.2,2.9,4.8V69.2z M113.9,61c0-1.2,0-1.7-0.5-1.7c-0.5,0-0.5,0.5-0.5,1.7v9.1c0,1.2,0,1.7,0.5,1.7
		c0.5,0,0.5-0.5,0.5-1.7V61z M122.7,57.2h1.4c0.2,0,0.5,0,0.4,0.4l-2.3,16c-0.1,0.4-0.1,0.4-0.5,0.4h-1.3c-0.4,0-0.5-0.1-0.5-0.4
		l-2.3-16c0-0.4,0.2-0.4,0.4-0.4h1.4c0.3,0,0.5,0,0.5,0.4l1,6.8c0,0.1,0.2,0.1,0.2,0l1-6.8C122.3,57.2,122.4,57.2,122.7,57.2z
		 M126.7,74c-0.2,0-0.5,0-0.5-0.5V57.7c0-0.4,0.1-0.5,0.5-0.5h3.6c0.4,0,0.5,0.1,0.5,0.5V59c0,0.4-0.1,0.5-0.5,0.5h-1.2
		c-0.5,0-0.5,0-0.5,0.5v3.6c0,0.5,0,0.5,0.5,0.5h1.2c0.4,0,0.5,0.1,0.5,0.5v1.3c0,0.4-0.1,0.5-0.5,0.5h-1.2c-0.5,0-0.5,0-0.5,0.5
		v4.5c0,0.5,0,0.5,0.5,0.5h1.2c0.4,0,0.5,0.1,0.5,0.5v1.3c0,0.4-0.1,0.5-0.5,0.5H126.7z M140.1,74c-0.2,0-0.5,0-0.5-0.5v-5.4
		c0-0.2-2-10.5-2-10.5c0-0.3,0-0.5,0.3-0.5h1.5c0.4,0,0.5,0.1,0.6,0.5l0.7,4.3c0,0.1,0.2,0.1,0.2,0l0.7-4.3c0.1-0.4,0.1-0.5,0.6-0.5
		h1.4c0.5,0,0.5,0.2,0.4,0.5c0,0-2.1,10.2-2.1,10.5v5.4c0,0.5-0.2,0.5-0.5,0.5H140.1z M151,69.2c0,3.6-0.5,4.8-2.9,4.8
		c-2.4,0-2.9-1.2-2.9-4.8V62c0-3.6,0.5-4.8,2.9-4.8c2.4,0,2.9,1.2,2.9,4.8V69.2z M148.6,61c0-1.2,0-1.7-0.5-1.7
		c-0.5,0-0.5,0.5-0.5,1.7v9.1c0,1.2,0,1.7,0.5,1.7c0.5,0,0.5-0.5,0.5-1.7V61z M156.2,57.7c0-0.4,0.1-0.5,0.5-0.5h1.4
		c0.4,0,0.5,0.1,0.5,0.5v11.5c0,3.6-0.5,4.8-2.9,4.8c-2.4,0-2.9-1.2-2.9-4.8V57.7c0-0.4,0.1-0.5,0.5-0.5h1.4c0.4,0,0.5,0.1,0.5,0.5
		v12.5c0,1.2,0,1.7,0.5,1.7c0.5,0,0.5-0.5,0.5-1.7V57.7z M166.3,63c0,2.1-0.2,3.4-0.8,4.1l0.7,6.5c0,0.4-0.1,0.5-0.3,0.5h-1.4
		c-0.3,0-0.5,0-0.5-0.4l-0.7-5.9c-0.3,0-0.4,0-0.4,0.5v5.3c0,0.4-0.1,0.5-0.5,0.5H161c-0.4,0-0.5-0.1-0.5-0.5V57.7
		c0-0.4,0.1-0.5,0.5-0.5h2.4c2.4,0,2.9,1.2,2.9,4.8V63z M162.9,65.3c0,0.3,0,0.3,0.3,0.3c0.6,0,0.6-0.3,0.6-1.7V61
		c0-1.4,0-1.7-0.6-1.7c-0.3,0-0.3,0-0.3,0.3V65.3z M175.9,61v9.1c0,1.2,0,1.7,0.5,1.7s0.5-0.5,0.5-1.7v-1.4c0-0.4,0.1-0.5,0.5-0.5
		h1.4c0.4,0,0.5,0.1,0.5,0.5v0.5c0,3.6-0.5,4.8-2.9,4.8s-2.9-1.2-2.9-4.8V62c0-3.6,0.5-4.8,2.9-4.8s2.9,1.2,2.9,4.8v0.5
		c0,0.4-0.1,0.5-0.5,0.5h-1.4c-0.4,0-0.5-0.1-0.5-0.5V61c0-1.2,0-1.7-0.5-1.7S175.9,59.8,175.9,61z M186.7,74h-1.4
		c-0.3,0-0.5,0-0.5-0.4l-0.2-1.4c0-0.3-0.1-0.3-0.5-0.3h-0.6c-0.5,0-0.5,0-0.5,0.3l-0.2,1.4c0,0.4-0.2,0.4-0.5,0.4h-1.4
		c-0.2,0-0.5,0-0.4-0.4l2.2-16c0.1-0.4,0.1-0.4,0.5-0.4h1.3c0.4,0,0.5,0.1,0.5,0.4l2.2,16C187.2,74,186.9,74,186.7,74z M183.6,64.6
		l-0.5,4.5c0,0.5-0.1,0.5,0.4,0.5h0.4c0.5,0,0.4,0,0.4-0.5l-0.5-4.5C183.8,64.5,183.7,64.5,183.6,64.6z M195.4,74H194
		c-0.3,0-0.5-0.1-0.5-0.5v-7.2c0-0.1-0.1-0.1-0.1,0l-0.3,1.3c-0.1,0.3-0.2,0.3-0.6,0.3H192c-0.2,0-0.4,0-0.5-0.3l-0.3-1.3
		c0-0.1-0.1-0.1-0.1,0v7.2c0,0.4-0.1,0.5-0.5,0.5h-1.4c-0.4,0-0.5-0.1-0.5-0.5V57.7c0-0.4,0.1-0.5,0.5-0.5h1.2
		c0.3,0,0.4,0.1,0.5,0.3l1.4,5.5c0,0.1,0.2,0.1,0.2,0l1.4-5.5c0-0.2,0.2-0.2,0.5-0.2h1.2c0.4,0,0.5,0.1,0.5,0.5v15.8
		C195.9,73.9,195.8,74,195.4,74z M198.3,74c-0.2,0-0.5,0-0.5-0.5V57.7c0-0.4,0.1-0.5,0.5-0.5h3.6c0.4,0,0.5,0.1,0.5,0.5V59
		c0,0.4-0.1,0.5-0.5,0.5h-1.2c-0.5,0-0.5,0-0.5,0.5v3.6c0,0.5,0,0.5,0.5,0.5h1.2c0.4,0,0.5,0.1,0.5,0.5v1.3c0,0.4-0.1,0.5-0.5,0.5
		h-1.2c-0.5,0-0.5,0-0.5,0.5v4.5c0,0.5,0,0.5,0.5,0.5h1.2c0.4,0,0.5,0.1,0.5,0.5v1.3c0,0.4-0.1,0.5-0.5,0.5H198.3z M210.1,63
		c0,2.1-0.2,3.4-0.8,4.1l0.7,6.5c0,0.4-0.1,0.5-0.3,0.5h-1.4c-0.3,0-0.5,0-0.5-0.4l-0.7-5.9c-0.3,0-0.4,0-0.4,0.5v5.3
		c0,0.4-0.1,0.5-0.5,0.5h-1.4c-0.4,0-0.5-0.1-0.5-0.5V57.7c0-0.4,0.1-0.5,0.5-0.5h2.4c2.4,0,2.9,1.2,2.9,4.8V63z M206.8,65.3
		c0,0.3,0,0.3,0.3,0.3c0.6,0,0.6-0.3,0.6-1.7V61c0-1.4,0-1.7-0.6-1.7c-0.3,0-0.3,0-0.3,0.3V65.3z M217.8,74h-1.4
		c-0.3,0-0.5,0-0.5-0.4l-0.2-1.4c0-0.3-0.1-0.3-0.5-0.3h-0.6c-0.5,0-0.5,0-0.5,0.3l-0.2,1.4c0,0.4-0.2,0.4-0.5,0.4h-1.4
		c-0.2,0-0.5,0-0.4-0.4l2.2-16c0.1-0.4,0.1-0.4,0.5-0.4h1.3c0.4,0,0.5,0.1,0.5,0.4l2.2,16C218.2,74,218,74,217.8,74z M214.7,64.6
		l-0.5,4.5c0,0.5-0.1,0.5,0.4,0.5h0.4c0.5,0,0.4,0,0.4-0.5l-0.5-4.5C214.9,64.5,214.7,64.5,214.7,64.6z M231,74h-1.4
		c-0.3,0-0.5,0-0.5-0.4l-0.2-1.4c0-0.3-0.1-0.3-0.5-0.3h-0.6c-0.5,0-0.5,0-0.5,0.3l-0.2,1.4c0,0.4-0.2,0.4-0.5,0.4h-1.4
		c-0.2,0-0.5,0-0.4-0.4l2.2-16c0.1-0.4,0.1-0.4,0.5-0.4h1.3c0.4,0,0.5,0.1,0.5,0.4l2.2,16C231.5,74,231.2,74,231,74z M228,64.6
		l-0.5,4.5c0,0.5-0.1,0.5,0.4,0.5h0.4c0.5,0,0.4,0,0.4-0.5l-0.5-4.5C228.1,64.5,228,64.5,228,64.6z M238.7,63c0,2.1-0.2,3.4-0.8,4.1
		l0.7,6.5c0,0.4-0.1,0.5-0.3,0.5H237c-0.3,0-0.5,0-0.5-0.4l-0.7-5.9c-0.3,0-0.4,0-0.4,0.5v5.3c0,0.4-0.1,0.5-0.5,0.5h-1.4
		c-0.4,0-0.5-0.1-0.5-0.5V57.7c0-0.4,0.1-0.5,0.5-0.5h2.4c2.4,0,2.9,1.2,2.9,4.8V63z M235.4,65.3c0,0.3,0,0.3,0.3,0.3
		c0.6,0,0.6-0.3,0.6-1.7V61c0-1.4,0-1.7-0.6-1.7c-0.3,0-0.3,0-0.3,0.3V65.3z M246.4,69.2c0,3.6-0.5,4.8-2.9,4.8
		c-2.4,0-2.9-1.2-2.9-4.8V62c0-3.6,0.5-4.8,2.9-4.8c2.4,0,2.9,1.2,2.9,4.8V69.2z M244,61c0-1.2,0-1.7-0.5-1.7
		c-0.5,0-0.5,0.5-0.5,1.7v9.1c0,1.2,0,1.7,0.5,1.7c0.5,0,0.5-0.5,0.5-1.7V61z M251.7,57.7c0-0.4,0.1-0.5,0.5-0.5h1.4
		c0.4,0,0.5,0.1,0.5,0.5v11.5c0,3.6-0.5,4.8-2.9,4.8c-2.4,0-2.9-1.2-2.9-4.8V57.7c0-0.4,0.1-0.5,0.5-0.5h1.4c0.4,0,0.5,0.1,0.5,0.5
		v12.5c0,1.2,0,1.7,0.5,1.7c0.5,0,0.5-0.5,0.5-1.7V57.7z M260.8,74c-0.2,0-0.4,0-0.5-0.3l-1.7-6.6c0-0.1-0.2-0.1-0.2,0v6.4
		c0,0.4-0.1,0.5-0.5,0.5h-1.4c-0.4,0-0.5-0.1-0.5-0.5V57.7c0-0.4,0.1-0.5,0.5-0.5h1.2c0.3,0,0.4,0,0.5,0.3l1.7,6.6
		c0,0.1,0.2,0.1,0.2,0v-6.4c0-0.4,0.1-0.5,0.5-0.5h1.4c0.4,0,0.5,0.1,0.5,0.5v15.8c0,0.4-0.1,0.5-0.5,0.5H260.8z M264.4,73.5V57.7
		c0-0.4,0.1-0.5,0.5-0.5h2.4c2.4,0,2.9,1.2,2.9,4.8v7.2c0,3.6-0.5,4.8-2.9,4.8h-2.4C264.7,74,264.4,74,264.4,73.5z M266.8,71.5
		c0,0.3,0,0.3,0.3,0.3c0.6,0,0.6-0.3,0.6-1.7V61c0-1.4,0-1.7-0.6-1.7c-0.3,0-0.3,0-0.3,0.3V71.5z M110.2,81.7c0-0.2,0-0.5,0.5-0.5
		h4.8c0.4,0,0.5,0.1,0.5,0.5V83c0,0.4-0.1,0.5-0.5,0.5h-0.7c-0.5,0-0.5,0-0.5,0.5v13.6c0,0.5-0.2,0.5-0.5,0.5h-1.4
		c-0.2,0-0.5,0-0.5-0.5V83.9c0-0.5,0-0.5-0.5-0.5h-0.7c-0.5,0-0.5-0.2-0.5-0.5V81.7z M122.8,93.2c0,3.6-0.5,4.8-2.9,4.8
		c-2.4,0-2.9-1.2-2.9-4.8V86c0-3.6,0.5-4.8,2.9-4.8c2.4,0,2.9,1.2,2.9,4.8V93.2z M120.4,85c0-1.2,0-1.7-0.5-1.7
		c-0.5,0-0.5,0.5-0.5,1.7v9.1c0,1.2,0,1.7,0.5,1.7c0.5,0,0.5-0.5,0.5-1.7V85z M130.5,98c-0.2,0-0.5,0-0.5-0.5V81.7
		c0-0.4,0.1-0.5,0.5-0.5h3.6c0.4,0,0.5,0.1,0.5,0.5V83c0,0.4-0.1,0.5-0.5,0.5h-1.2c-0.5,0-0.5,0-0.5,0.5v3.6c0,0.5,0,0.5,0.5,0.5
		h0.5c0.4,0,0.5,0.1,0.5,0.5v1.3c0,0.4-0.1,0.5-0.5,0.5h-0.5c-0.5,0-0.5,0-0.5,0.5v6.8c0,0.5-0.2,0.5-0.5,0.5H130.5z M136.6,98
		c-0.2,0-0.5,0-0.5-0.5V81.7c0-0.4,0.1-0.5,0.5-0.5h1.4c0.4,0,0.5,0.1,0.5,0.5v15.8c0,0.5-0.2,0.5-0.5,0.5H136.6z M145.3,98
		c-0.2,0-0.4,0-0.5-0.3l-1.7-6.6c0-0.1-0.2-0.1-0.2,0v6.4c0,0.4-0.1,0.5-0.5,0.5h-1.4c-0.4,0-0.5-0.1-0.5-0.5V81.7
		c0-0.4,0.1-0.5,0.5-0.5h1.2c0.3,0,0.4,0,0.5,0.3l1.7,6.6c0,0.1,0.2,0.1,0.2,0v-6.4c0-0.4,0.1-0.5,0.5-0.5h1.4
		c0.4,0,0.5,0.1,0.5,0.5v15.8c0,0.4-0.1,0.5-0.5,0.5H145.3z M148.9,97.5V81.7c0-0.4,0.1-0.5,0.5-0.5h2.4c2.4,0,2.9,1.2,2.9,4.8v7.2
		c0,3.6-0.5,4.8-2.9,4.8h-2.4C149.1,98,148.9,98,148.9,97.5z M151.3,95.5c0,0.3,0,0.3,0.3,0.3c0.6,0,0.6-0.3,0.6-1.7V85
		c0-1.4,0-1.7-0.6-1.7c-0.3,0-0.3,0-0.3,0.3V95.5z M161.5,81.7c0-0.2,0-0.5,0.5-0.5h4.8c0.4,0,0.5,0.1,0.5,0.5V83
		c0,0.4-0.1,0.5-0.5,0.5H166c-0.5,0-0.5,0-0.5,0.5v13.6c0,0.5-0.2,0.5-0.5,0.5h-1.4c-0.2,0-0.5,0-0.5-0.5V83.9c0-0.5,0-0.5-0.5-0.5
		h-0.7c-0.5,0-0.5-0.2-0.5-0.5V81.7z M172.6,98c-0.2,0-0.5,0-0.5-0.5v-6.8c0-0.5,0-0.5-0.5-0.5s-0.5,0-0.5,0.5v6.8
		c0,0.5-0.2,0.5-0.5,0.5h-1.4c-0.2,0-0.5,0-0.5-0.5V81.7c0-0.4,0.1-0.5,0.5-0.5h1.4c0.4,0,0.5,0.1,0.5,0.5v5.9c0,0.5,0,0.5,0.5,0.5
		s0.5,0,0.5-0.5v-5.9c0-0.4,0.1-0.5,0.5-0.5h1.4c0.4,0,0.5,0.1,0.5,0.5v15.8c0,0.5-0.2,0.5-0.5,0.5H172.6z M176.9,98
		c-0.2,0-0.5,0-0.5-0.5V81.7c0-0.4,0.1-0.5,0.5-0.5h3.6c0.4,0,0.5,0.1,0.5,0.5V83c0,0.4-0.1,0.5-0.5,0.5h-1.2c-0.5,0-0.5,0-0.5,0.5
		v3.6c0,0.5,0,0.5,0.5,0.5h1.2c0.4,0,0.5,0.1,0.5,0.5v1.3c0,0.4-0.1,0.5-0.5,0.5h-1.2c-0.5,0-0.5,0-0.5,0.5v4.5c0,0.5,0,0.5,0.5,0.5
		h1.2c0.4,0,0.5,0.1,0.5,0.5v1.3c0,0.4-0.1,0.5-0.5,0.5H176.9z M194,87.6c0,3.6-0.5,4.8-2.9,4.8c-0.5,0-0.5,0-0.5,0.5v4.6
		c0,0.4-0.1,0.5-0.5,0.5h-1.4c-0.4,0-0.5-0.1-0.5-0.5V81.7c0-0.4,0.1-0.5,0.5-0.5h2.4c2.4,0,2.9,1.2,2.9,4.8V87.6z M190.6,89.9
		c0,0.3,0,0.3,0.3,0.3c0.6,0,0.6-0.3,0.6-1.7V85c0-1.4,0-1.7-0.6-1.7c-0.3,0-0.3,0-0.3,0.3V89.9z M199.8,98c-0.2,0-0.5,0-0.5-0.5
		v-6.8c0-0.5,0-0.5-0.5-0.5c-0.5,0-0.5,0-0.5,0.5v6.8c0,0.5-0.2,0.5-0.5,0.5h-1.4c-0.2,0-0.5,0-0.5-0.5V81.7c0-0.4,0.1-0.5,0.5-0.5
		h1.4c0.4,0,0.5,0.1,0.5,0.5v5.9c0,0.5,0,0.5,0.5,0.5c0.5,0,0.5,0,0.5-0.5v-5.9c0-0.4,0.1-0.5,0.5-0.5h1.4c0.4,0,0.5,0.1,0.5,0.5
		v15.8c0,0.5-0.2,0.5-0.5,0.5H199.8z M209.3,93.2c0,3.6-0.5,4.8-2.9,4.8c-2.4,0-2.9-1.2-2.9-4.8V86c0-3.6,0.5-4.8,2.9-4.8
		c2.4,0,2.9,1.2,2.9,4.8V93.2z M206.9,85c0-1.2,0-1.7-0.5-1.7S206,83.8,206,85v9.1c0,1.2,0,1.7,0.5,1.7s0.5-0.5,0.5-1.7V85z
		 M210.4,81.7c0-0.2,0-0.5,0.5-0.5h4.8c0.4,0,0.5,0.1,0.5,0.5V83c0,0.4-0.1,0.5-0.5,0.5H215c-0.5,0-0.5,0-0.5,0.5v13.6
		c0,0.5-0.2,0.5-0.5,0.5h-1.4c-0.2,0-0.5,0-0.5-0.5V83.9c0-0.5,0-0.5-0.5-0.5h-0.7c-0.5,0-0.5-0.2-0.5-0.5V81.7z M223,93.2
		c0,3.6-0.5,4.8-2.9,4.8c-2.4,0-2.9-1.2-2.9-4.8V86c0-3.6,0.5-4.8,2.9-4.8c2.4,0,2.9,1.2,2.9,4.8V93.2z M220.6,85
		c0-1.2,0-1.7-0.5-1.7c-0.5,0-0.5,0.5-0.5,1.7v9.1c0,1.2,0,1.7,0.5,1.7c0.5,0,0.5-0.5,0.5-1.7V85z M227.7,88.5
		c0-0.4,0.1-0.5,0.5-0.5h2.1c0.4,0,0.5,0.1,0.5,0.5v4.7c0,3.6-0.5,4.8-2.9,4.8c-2.4,0-2.9-1.2-2.9-4.8V86c0-3.6,0.5-4.8,2.9-4.8
		c2.6,0,2.9,1.7,2.9,4.3c0,0.4-0.1,0.5-0.5,0.5h-1.4c-0.4,0-0.5-0.1-0.5-0.5c0-1.7,0-2.2-0.5-2.2c-0.5,0-0.5,0.5-0.5,1.7v9.1
		c0,1.2,0,1.7,0.5,1.7c0.5,0,0.5-0.5,0.5-1.7v-3.8c0-0.1-0.1-0.1-0.1-0.1c-0.4,0-0.5-0.1-0.5-0.5V88.5z M238.4,87
		c0,2.1-0.2,3.4-0.8,4.1l0.7,6.5c0,0.4-0.1,0.5-0.3,0.5h-1.4c-0.3,0-0.5,0-0.5-0.4l-0.7-5.9c-0.3,0-0.4,0-0.4,0.5v5.3
		c0,0.4-0.1,0.5-0.5,0.5h-1.4c-0.4,0-0.5-0.1-0.5-0.5V81.7c0-0.4,0.1-0.5,0.5-0.5h2.4c2.4,0,2.9,1.2,2.9,4.8V87z M235,89.3
		c0,0.3,0,0.3,0.3,0.3c0.6,0,0.6-0.3,0.6-1.7V85c0-1.4,0-1.7-0.6-1.7c-0.3,0-0.3,0-0.3,0.3V89.3z M246,98h-1.4c-0.3,0-0.5,0-0.5-0.4
		l-0.2-1.4c0-0.3-0.1-0.3-0.5-0.3h-0.6c-0.5,0-0.5,0-0.5,0.3l-0.2,1.4c0,0.4-0.2,0.4-0.5,0.4h-1.4c-0.2,0-0.5,0-0.4-0.4l2.2-16
		c0.1-0.4,0.1-0.4,0.5-0.4h1.3c0.4,0,0.5,0.1,0.5,0.4l2.2,16C246.5,98,246.3,98,246,98z M243,88.6l-0.5,4.5c0,0.5-0.1,0.5,0.4,0.5
		h0.4c0.5,0,0.4,0,0.4-0.5l-0.5-4.5C243.2,88.5,243,88.5,243,88.6z M253.8,87.6c0,3.6-0.5,4.8-2.9,4.8c-0.5,0-0.5,0-0.5,0.5v4.6
		c0,0.4-0.1,0.5-0.5,0.5h-1.4c-0.4,0-0.5-0.1-0.5-0.5V81.7c0-0.4,0.1-0.5,0.5-0.5h2.4c2.4,0,2.9,1.2,2.9,4.8V87.6z M250.4,89.9
		c0,0.3,0,0.3,0.3,0.3c0.6,0,0.6-0.3,0.6-1.7V85c0-1.4,0-1.7-0.6-1.7c-0.3,0-0.3,0-0.3,0.3V89.9z M259.5,98c-0.2,0-0.5,0-0.5-0.5
		v-6.8c0-0.5,0-0.5-0.5-0.5s-0.5,0-0.5,0.5v6.8c0,0.5-0.2,0.5-0.5,0.5h-1.4c-0.2,0-0.5,0-0.5-0.5V81.7c0-0.4,0.1-0.5,0.5-0.5h1.4
		c0.4,0,0.5,0.1,0.5,0.5v5.9c0,0.5,0,0.5,0.5,0.5s0.5,0,0.5-0.5v-5.9c0-0.4,0.1-0.5,0.5-0.5h1.4c0.4,0,0.5,0.1,0.5,0.5v15.8
		c0,0.5-0.2,0.5-0.5,0.5H259.5z"/>
	<g>
		<path class="st2" d="M350,65.8c-0.4,0-0.9-0.2-1.2-0.5c-0.7-0.7-0.7-1.8,0-2.5L359.5,52l-10.8-10.8c-0.7-0.7-0.7-1.8,0-2.5
			c0.7-0.7,1.8-0.7,2.5,0l12,12c0.7,0.7,0.7,1.8,0,2.5l-12,12C350.9,65.6,350.4,65.8,350,65.8z"/>
	</g>
	<g>
		<path class="st2" d="M329,65.8c-0.4,0-0.9-0.2-1.2-0.5c-0.7-0.7-0.7-1.8,0-2.5L338.5,52l-10.8-10.8c-0.7-0.7-0.7-1.8,0-2.5
			c0.7-0.7,1.8-0.7,2.5,0l12,12c0.7,0.7,0.7,1.8,0,2.5l-12,12C329.9,65.6,329.4,65.8,329,65.8z"/>
	</g>
	<g>
		<path class="st2" d="M308,65.8c-0.4,0-0.9-0.2-1.2-0.5c-0.7-0.7-0.7-1.8,0-2.5L317.5,52l-10.8-10.8c-0.7-0.7-0.7-1.8,0-2.5
			c0.7-0.7,1.8-0.7,2.5,0l12,12c0.7,0.7,0.7,1.8,0,2.5l-12,12C308.9,65.6,308.4,65.8,308,65.8z"/>
	</g>
	<g>
		<path class="st2" d="M287,65.8c-0.4,0-0.9-0.2-1.2-0.5c-0.7-0.7-0.7-1.8,0-2.5L296.5,52l-10.8-10.8c-0.7-0.7-0.7-1.8,0-2.5
			c0.7-0.7,1.8-0.7,2.5,0l12,12c0.7,0.7,0.7,1.8,0,2.5l-12,12C287.9,65.6,287.4,65.8,287,65.8z"/>
	</g>
</g>
</svg>
