<?xml version="1.0" encoding="UTF-8"?>
<svg id="Layer_2" data-name="Layer 2" xmlns="http://www.w3.org/2000/svg" viewBox="0 0 355.75 93.75">
  <defs>
    <style>
      .cls-1 {
        fill: #fafafa;
      }

      .cls-1, .cls-2 {
        stroke: #000;
        stroke-miterlimit: 10;
        stroke-width: .25px;
      }

      .cls-2 {
        fill: #fff;
      }

      .cls-3 {
        fill: none;
        stroke: #fff;
        stroke-linecap: round;
        stroke-linejoin: round;
        stroke-width: 3.5px;
      }
    </style>
  </defs>
  <g id="Layer_1-2" data-name="Layer 1">
    <path class="cls-2" d="m13.88,61.38c-.45,0-.89-.17-1.24-.51L.64,48.9c-.68-.68-.69-1.79,0-2.48l11.99-12.04c.68-.68,1.79-.69,2.48,0,.68.68.69,1.79,0,2.48l-10.76,10.8,10.76,10.73c.68.68.69,1.79,0,2.47-.34.34-.79.51-1.24.51Z"/>
    <path class="cls-2" d="m34.88,61.38c-.45,0-.89-.17-1.24-.51l-12-11.96c-.68-.68-.69-1.79,0-2.48l11.99-12.04c.68-.68,1.79-.69,2.48,0,.68.68.69,1.79,0,2.48l-10.76,10.8,10.76,10.73c.68.68.69,1.79,0,2.47-.34.34-.79.51-1.24.51Z"/>
    <path class="cls-2" d="m55.88,61.38c-.45,0-.89-.17-1.24-.51l-12-11.96c-.68-.68-.69-1.79,0-2.48l11.99-12.04c.68-.68,1.79-.69,2.48,0,.68.68.69,1.79,0,2.48l-10.76,10.8,10.76,10.73c.68.68.69,1.79,0,2.47-.34.34-.79.51-1.24.51Z"/>
    <path class="cls-3" d="m76.87,35.63l-11.99,12.04,12,11.96"/>
    <path class="cls-1" d="m169.88,19.12c-1.41,0-2.82-.54-3.89-1.61-1.04-1.04-1.61-2.42-1.61-3.89s.57-2.85,1.61-3.89c2.14-2.14,5.63-2.14,7.78,0,1.04,1.04,1.61,2.42,1.61,3.89s-.57,2.85-1.61,3.89c-1.07,1.07-2.48,1.61-3.89,1.61Zm0-8c-.64,0-1.28.24-1.77.73s-.73,1.1-.73,1.77.26,1.29.73,1.77c.97.97,2.56.98,3.54,0,.47-.47.73-1.1.73-1.77s-.26-1.3-.73-1.77h0c-.49-.49-1.13-.73-1.77-.73Z"/>
    <path class="cls-2" d="m199.37,27.69V5.62c0-3.03-2.47-5.5-5.5-5.5h-31.99c-3.03,0-5.5,2.47-5.5,5.5v28c0,3.03,2.46,5.49,5.49,5.5,0,0,0,0,0,0,0,0,0,0,0,0,0,0,0,0,0,0h31.99c3.03,0,5.5-2.47,5.5-5.5v-5.87s0-.04,0-.06Zm-39.99,5.93V5.62c0-1.38,1.12-2.5,2.5-2.5h31.99c1.38,0,2.5,1.12,2.5,2.5v18.87l-6-4.8c-1.51-1.21-3.71-.96-4.92.55l-6.67,8.34c-.17.22-.49.25-.7.08l-3.74-2.99c-1.48-1.18-3.67-.96-4.88.49l-8.22,9.86c-1.07-.28-1.87-1.25-1.87-2.41Zm34.49,2.5h-28.79l6.69-8.03c.17-.21.49-.24.7-.07l3.74,2.99c1.51,1.2,3.71.96,4.92-.55l6.67-8.34c.17-.22.49-.25.7-.08l7.87,6.29v5.28c0,1.38-1.12,2.5-2.5,2.5Z"/>
    <path class="cls-2" d="m99.99,69.63h-1.44c-.29,0-.48-.12-.48-.48v-7.18c0-.1-.12-.12-.14,0l-.29,1.27c-.07.34-.24.34-.55.34h-.55c-.24,0-.41,0-.48-.34l-.29-1.27c-.02-.12-.14-.1-.14,0v7.18c0,.36-.12.48-.48.48h-1.44c-.36,0-.48-.12-.48-.48v-15.84c0-.36.12-.48.48-.48h1.2c.29,0,.41.07.46.29l1.39,5.5c.02.12.17.12.19,0l1.39-5.54c.05-.17.19-.24.46-.24h1.2c.36,0,.48.12.48.48v15.84c0,.36-.14.48-.48.48Zm8.17-4.8c0,3.6-.48,4.8-2.88,4.8s-2.88-1.18-2.88-4.8v-7.2c0-3.62.48-4.8,2.88-4.8s2.88,1.2,2.88,4.8v7.2Zm-2.4-8.16c0-1.22,0-1.7-.48-1.7s-.48.5-.48,1.7v9.12c0,1.2,0,1.7.48,1.7s.48-.48.48-1.7v-9.12Zm8.86-3.84h1.44c.24,0,.46,0,.41.41l-2.3,15.96c-.07.36-.14.43-.53.43h-1.3c-.38,0-.46-.07-.53-.43l-2.3-15.96c-.05-.41.17-.41.41-.41h1.44c.31,0,.48,0,.53.36l1.01,6.82c.02.12.17.12.19,0l1.01-6.82c.05-.36.22-.36.53-.36Zm3.92,16.8c-.24,0-.48,0-.48-.48v-15.84c0-.36.12-.48.48-.48h3.62c.36,0,.48.12.48.48v1.3c0,.36-.12.48-.48.48h-1.22q-.48,0-.48.48v3.6q0,.48.48.48h1.22c.36,0,.48.12.48.48v1.3c0,.36-.12.48-.48.48h-1.22q-.48,0-.48.48v4.51q0,.48.48.48h1.22c.36,0,.48.12.48.48v1.3c0,.36-.12.48-.48.48h-3.62Zm13.42,0c-.24,0-.48,0-.48-.48v-5.35c0-.24-1.97-10.49-1.97-10.49-.05-.26,0-.48.31-.48h1.54c.43,0,.48.12.55.48l.7,4.32c.02.14.19.14.22,0l.72-4.32c.07-.36.07-.48.55-.48h1.44c.48,0,.46.24.41.48,0,0-2.06,10.25-2.06,10.49v5.35c0,.48-.24.48-.48.48h-1.44Zm10.88-4.8c0,3.6-.48,4.8-2.88,4.8s-2.88-1.18-2.88-4.8v-7.2c0-3.62.48-4.8,2.88-4.8s2.88,1.2,2.88,4.8v7.2Zm-2.4-8.16c0-1.22,0-1.7-.48-1.7s-.48.5-.48,1.7v9.12c0,1.2,0,1.7.48,1.7s.48-.48.48-1.7v-9.12Zm7.68-3.36c0-.36.12-.48.48-.48h1.44c.36,0,.48.12.48.48v11.52c0,3.6-.48,4.8-2.88,4.8s-2.88-1.18-2.88-4.8v-11.52c0-.36.12-.48.48-.48h1.44c.36,0,.48.12.48.48v12.48c0,1.2,0,1.7.48,1.7s.48-.48.48-1.7v-12.48Zm10.07,5.28c0,2.09-.17,3.36-.77,4.06l.74,6.48c.05.38-.14.5-.34.5h-1.39c-.31,0-.48,0-.53-.36l-.72-5.9c-.34,0-.36.05-.36.48v5.3c0,.36-.14.48-.48.48h-1.44c-.38,0-.48-.12-.48-.48v-15.84c0-.36.12-.48.48-.48h2.4c2.4,0,2.88,1.2,2.88,4.8v.96Zm-3.36,2.3q0,.34.34.34c.58,0,.62-.26.62-1.7v-2.86c0-1.44-.05-1.7-.62-1.7q-.34,0-.34.34v5.59Zm12.96-4.22v9.12c0,1.2,0,1.7.48,1.7s.48-.48.48-1.7v-1.44c0-.36.12-.48.48-.48h1.44c.36,0,.48.12.48.48v.48c0,3.6-.48,4.8-2.88,4.8s-2.88-1.18-2.88-4.8v-7.2c0-3.62.48-4.8,2.88-4.8s2.88,1.2,2.88,4.8v.48c0,.36-.12.48-.48.48h-1.44c-.36,0-.48-.12-.48-.48v-1.44c0-1.22,0-1.7-.48-1.7s-.48.5-.48,1.7Zm10.78,12.96h-1.44c-.31,0-.48,0-.53-.36l-.17-1.44c-.05-.34-.07-.34-.5-.34h-.6c-.46,0-.48,0-.53.34l-.17,1.44c-.05.36-.22.36-.53.36h-1.44c-.24,0-.46,0-.41-.41l2.18-15.96c.07-.36.14-.43.53-.43h1.3c.38,0,.46.07.53.43l2.18,15.96c.07.41-.17.41-.41.41Zm-3.05-9.41l-.5,4.54c-.02.48-.07.48.41.48h.38c.48,0,.43,0,.41-.48l-.5-4.54c-.02-.12-.17-.12-.19,0Zm11.8,9.41h-1.44c-.29,0-.48-.12-.48-.48v-7.18c0-.1-.12-.12-.14,0l-.29,1.27c-.07.34-.24.34-.55.34h-.55c-.24,0-.41,0-.48-.34l-.29-1.27c-.02-.12-.14-.1-.14,0v7.18c0,.36-.12.48-.48.48h-1.44c-.36,0-.48-.12-.48-.48v-15.84c0-.36.12-.48.48-.48h1.2c.29,0,.41.07.46.29l1.39,5.5c.02.12.17.12.19,0l1.39-5.54c.05-.17.19-.24.46-.24h1.2c.36,0,.48.12.48.48v15.84c0,.36-.14.48-.48.48Zm2.89,0c-.24,0-.48,0-.48-.48v-15.84c0-.36.12-.48.48-.48h3.62c.36,0,.48.12.48.48v1.3c0,.36-.12.48-.48.48h-1.22q-.48,0-.48.48v3.6q0,.48.48.48h1.22c.36,0,.48.12.48.48v1.3c0,.36-.12.48-.48.48h-1.22q-.48,0-.48.48v4.51q0,.48.48.48h1.22c.36,0,.48.12.48.48v1.3c0,.36-.12.48-.48.48h-3.62Zm11.78-11.04c0,2.09-.17,3.36-.77,4.06l.74,6.48c.05.38-.14.5-.34.5h-1.39c-.31,0-.48,0-.53-.36l-.72-5.9c-.34,0-.36.05-.36.48v5.3c0,.36-.14.48-.48.48h-1.44c-.38,0-.48-.12-.48-.48v-15.84c0-.36.12-.48.48-.48h2.4c2.4,0,2.88,1.2,2.88,4.8v.96Zm-3.36,2.3q0,.34.34.34c.58,0,.62-.26.62-1.7v-2.86c0-1.44-.05-1.7-.62-1.7q-.34,0-.34.34v5.59Zm11.02,8.74h-1.44c-.31,0-.48,0-.53-.36l-.17-1.44c-.05-.34-.07-.34-.5-.34h-.6c-.46,0-.48,0-.53.34l-.17,1.44c-.05.36-.22.36-.53.36h-1.44c-.24,0-.46,0-.41-.41l2.18-15.96c.07-.36.14-.43.53-.43h1.3c.38,0,.46.07.53.43l2.18,15.96c.07.41-.17.41-.41.41Zm-3.05-9.41l-.5,4.54c-.02.48-.07.48.41.48h.38c.48,0,.43,0,.41-.48l-.5-4.54c-.02-.12-.17-.12-.19,0Zm16.29,9.41h-1.44c-.31,0-.48,0-.53-.36l-.17-1.44c-.05-.34-.07-.34-.5-.34h-.6c-.46,0-.48,0-.53.34l-.17,1.44c-.05.36-.22.36-.53.36h-1.44c-.24,0-.46,0-.41-.41l2.18-15.96c.07-.36.14-.43.53-.43h1.3c.38,0,.46.07.53.43l2.18,15.96c.07.41-.17.41-.41.41Zm-3.05-9.41l-.5,4.54c-.02.48-.07.48.41.48h.38c.48,0,.43,0,.41-.48l-.5-4.54c-.02-.12-.17-.12-.19,0Zm10.79-1.63c0,2.09-.17,3.36-.77,4.06l.74,6.48c.05.38-.14.5-.34.5h-1.39c-.31,0-.48,0-.53-.36l-.72-5.9c-.34,0-.36.05-.36.48v5.3c0,.36-.14.48-.48.48h-1.44c-.38,0-.48-.12-.48-.48v-15.84c0-.36.12-.48.48-.48h2.4c2.4,0,2.88,1.2,2.88,4.8v.96Zm-3.36,2.3q0,.34.34.34c.58,0,.62-.26.62-1.7v-2.86c0-1.44-.05-1.7-.62-1.7q-.34,0-.34.34v5.59Zm11.04,3.94c0,3.6-.48,4.8-2.88,4.8s-2.88-1.18-2.88-4.8v-7.2c0-3.62.48-4.8,2.88-4.8s2.88,1.2,2.88,4.8v7.2Zm-2.4-8.16c0-1.22,0-1.7-.48-1.7s-.48.5-.48,1.7v9.12c0,1.2,0,1.7.48,1.7s.48-.48.48-1.7v-9.12Zm7.68-3.36c0-.36.12-.48.48-.48h1.44c.36,0,.48.12.48.48v11.52c0,3.6-.48,4.8-2.88,4.8s-2.88-1.18-2.88-4.8v-11.52c0-.36.12-.48.48-.48h1.44c.36,0,.48.12.48.48v12.48c0,1.2,0,1.7.48,1.7s.48-.48.48-1.7v-12.48Zm9.11,16.32c-.22,0-.41,0-.48-.29l-1.73-6.62c-.02-.14-.19-.12-.19,0v6.43c0,.36-.12.48-.48.48h-1.44c-.36,0-.48-.12-.48-.48v-15.84c0-.36.12-.48.48-.48h1.2c.26,0,.38,0,.48.31l1.73,6.58c.02.14.19.12.19,0v-6.41c0-.36.12-.48.48-.48h1.44c.36,0,.48.12.48.48v15.84c0,.36-.12.48-.48.48h-1.2Zm3.6-.48v-15.84c0-.36.12-.48.48-.48h2.4c2.4,0,2.88,1.2,2.88,4.8v7.2c0,3.6-.48,4.8-2.88,4.8h-2.4c-.24,0-.48,0-.48-.48Zm2.4-1.99q0,.34.34.34c.58,0,.62-.26.62-1.7v-9.12c0-1.44-.05-1.7-.62-1.7q-.34,0-.34.34v11.86Zm-156.63,10.15c0-.24,0-.48.48-.48h4.8c.36,0,.48.12.48.48v1.3c0,.36-.12.48-.48.48h-.72q-.48,0-.48.48v13.58c0,.48-.24.48-.48.48h-1.44c-.24,0-.48,0-.48-.48v-13.58q0-.48-.46-.48h-.74c-.48,0-.48-.24-.48-.48v-1.3Zm12.6,11.52c0,3.6-.48,4.8-2.88,4.8s-2.88-1.18-2.88-4.8v-7.2c0-3.62.48-4.8,2.88-4.8s2.88,1.2,2.88,4.8v7.2Zm-2.4-8.16c0-1.22,0-1.7-.48-1.7s-.48.5-.48,1.7v9.12c0,1.2,0,1.7.48,1.7s.48-.48.48-1.7v-9.12Zm10.08,12.96c-.24,0-.48,0-.48-.48v-15.84c0-.36.12-.48.48-.48h3.62c.36,0,.48.12.48.48v1.3c0,.36-.12.48-.48.48h-1.22q-.48,0-.48.48v3.6q0,.48.48.48h.48c.36,0,.48.12.48.48v1.3c0,.36-.12.48-.48.48h-.48q-.48,0-.48.48v6.77c0,.48-.24.48-.48.48h-1.44Zm6.15,0c-.24,0-.48,0-.48-.48v-15.84c0-.36.12-.48.48-.48h1.44c.36,0,.48.12.48.48v15.84c0,.48-.24.48-.48.48h-1.44Zm8.64,0c-.22,0-.41,0-.48-.29l-1.73-6.62c-.02-.14-.19-.12-.19,0v6.43c0,.36-.12.48-.48.48h-1.44c-.36,0-.48-.12-.48-.48v-15.84c0-.36.12-.48.48-.48h1.2c.26,0,.38,0,.48.31l1.73,6.58c.02.14.19.12.19,0v-6.41c0-.36.12-.48.48-.48h1.44c.36,0,.48.12.48.48v15.84c0,.36-.12.48-.48.48h-1.2Zm3.6-.48v-15.84c0-.36.12-.48.48-.48h2.4c2.4,0,2.88,1.2,2.88,4.8v7.2c0,3.6-.48,4.8-2.88,4.8h-2.4c-.24,0-.48,0-.48-.48Zm2.4-1.99q0,.34.34.34c.58,0,.62-.26.62-1.7v-9.12c0-1.44-.05-1.7-.62-1.7q-.34,0-.34.34v11.86Zm10.2-13.85c0-.24,0-.48.48-.48h4.8c.36,0,.48.12.48.48v1.3c0,.36-.12.48-.48.48h-.72q-.48,0-.48.48v13.58c0,.48-.24.48-.48.48h-1.44c-.24,0-.48,0-.48-.48v-13.58q0-.48-.46-.48h-.74c-.48,0-.48-.24-.48-.48v-1.3Zm11.15,16.32c-.24,0-.48,0-.48-.48v-6.77q0-.48-.48-.48t-.48.48v6.77c0,.48-.24.48-.48.48h-1.44c-.24,0-.48,0-.48-.48v-15.84c0-.36.12-.48.48-.48h1.44c.36,0,.48.12.48.48v5.86q0,.48.48.48.48,0,.48-.48v-5.86c0-.36.12-.48.48-.48h1.44c.36,0,.48.12.48.48v15.84c0,.48-.24.48-.48.48h-1.44Zm4.32,0c-.24,0-.48,0-.48-.48v-15.84c0-.36.12-.48.48-.48h3.62c.36,0,.48.12.48.48v1.3c0,.36-.12.48-.48.48h-1.22q-.48,0-.48.48v3.6q0,.48.48.48h1.22c.36,0,.48.12.48.48v1.3c0,.36-.12.48-.48.48h-1.22q-.48,0-.48.48v4.51q0,.48.48.48h1.22c.36,0,.48.12.48.48v1.3c0,.36-.12.48-.48.48h-3.62Zm17.07-10.37c0,3.58-.48,4.78-2.88,4.78q-.48,0-.48.48v4.63c0,.36-.14.48-.48.48h-1.44c-.38,0-.48-.12-.48-.48v-15.84c0-.36.12-.48.48-.48h2.4c2.4,0,2.88,1.2,2.88,4.8v1.63Zm-3.36,2.3q0,.34.34.34c.58,0,.62-.26.62-1.7v-3.53c0-1.44-.05-1.7-.62-1.7q-.34,0-.34.34v6.26Zm9.12,8.06c-.24,0-.48,0-.48-.48v-6.77q0-.48-.48-.48-.48,0-.48.48v6.77c0,.48-.24.48-.48.48h-1.44c-.24,0-.48,0-.48-.48v-15.84c0-.36.12-.48.48-.48h1.44c.36,0,.48.12.48.48v5.86q0,.48.48.48.48,0,.48-.48v-5.86c0-.36.12-.48.48-.48h1.44c.36,0,.48.12.48.48v15.84c0,.48-.24.48-.48.48h-1.44Zm9.6-4.8c0,3.6-.48,4.8-2.88,4.8s-2.88-1.18-2.88-4.8v-7.2c0-3.62.48-4.8,2.88-4.8s2.88,1.2,2.88,4.8v7.2Zm-2.4-8.16c0-1.22,0-1.7-.48-1.7s-.48.5-.48,1.7v9.12c0,1.2,0,1.7.48,1.7s.48-.48.48-1.7v-9.12Zm3.49-3.36c0-.24,0-.48.48-.48h4.8c.36,0,.48.12.48.48v1.3c0,.36-.12.48-.48.48h-.72q-.48,0-.48.48v13.58c0,.48-.24.48-.48.48h-1.44c-.24,0-.48,0-.48-.48v-13.58q0-.48-.46-.48h-.74c-.48,0-.48-.24-.48-.48v-1.3Zm12.6,11.52c0,3.6-.48,4.8-2.88,4.8s-2.88-1.18-2.88-4.8v-7.2c0-3.62.48-4.8,2.88-4.8s2.88,1.2,2.88,4.8v7.2Zm-2.4-8.16c0-1.22,0-1.7-.48-1.7s-.48.5-.48,1.7v9.12c0,1.2,0,1.7.48,1.7s.48-.48.48-1.7v-9.12Zm7.05,3.46c0-.36.12-.48.48-.48h2.06c.36,0,.48.12.48.48v4.7c0,3.6-.48,4.8-2.88,4.8s-2.88-1.18-2.88-4.8v-7.2c0-3.62.48-4.8,2.88-4.8,2.57,0,2.86,1.73,2.86,4.32,0,.36-.12.48-.48.48h-1.42c-.36,0-.48-.12-.48-.48,0-1.68,0-2.18-.48-2.18s-.48.5-.48,1.7v9.12c0,1.2,0,1.7.48,1.7s.48-.48.48-1.7v-3.77c0-.12-.07-.12-.14-.12-.36,0-.48-.12-.48-.48v-1.3Zm10.7-1.54c0,2.09-.17,3.36-.77,4.06l.74,6.48c.05.38-.14.5-.34.5h-1.39c-.31,0-.48,0-.53-.36l-.72-5.9c-.34,0-.36.05-.36.48v5.3c0,.36-.14.48-.48.48h-1.44c-.38,0-.48-.12-.48-.48v-15.84c0-.36.12-.48.48-.48h2.4c2.4,0,2.88,1.2,2.88,4.8v.96Zm-3.36,2.3q0,.34.34.34c.58,0,.62-.26.62-1.7v-2.86c0-1.44-.05-1.7-.62-1.7q-.34,0-.34.34v5.59Zm11.02,8.74h-1.44c-.31,0-.48,0-.53-.36l-.17-1.44c-.05-.34-.07-.34-.5-.34h-.6c-.46,0-.48,0-.53.34l-.17,1.44c-.05.36-.22.36-.53.36h-1.44c-.24,0-.46,0-.41-.41l2.18-15.96c.07-.36.14-.43.53-.43h1.3c.38,0,.46.07.53.43l2.18,15.96c.07.41-.17.41-.41.41Zm-3.05-9.41l-.5,4.54c-.02.48-.07.48.41.48h.38c.48,0,.43,0,.41-.48l-.5-4.54c-.02-.12-.17-.12-.19,0Zm10.79-.96c0,3.58-.48,4.78-2.88,4.78q-.48,0-.48.48v4.63c0,.36-.14.48-.48.48h-1.44c-.38,0-.48-.12-.48-.48v-15.84c0-.36.12-.48.48-.48h2.4c2.4,0,2.88,1.2,2.88,4.8v1.63Zm-3.36,2.3q0,.34.34.34c.58,0,.62-.26.62-1.7v-3.53c0-1.44-.05-1.7-.62-1.7q-.34,0-.34.34v6.26Zm9.12,8.06c-.24,0-.48,0-.48-.48v-6.77q0-.48-.48-.48-.48,0-.48.48v6.77c0,.48-.24.48-.48.48h-1.44c-.24,0-.48,0-.48-.48v-15.84c0-.36.12-.48.48-.48h1.44c.36,0,.48.12.48.48v5.86q0,.48.48.48.48,0,.48-.48v-5.86c0-.36.12-.48.48-.48h1.44c.36,0,.48.12.48.48v15.84c0,.48-.24.48-.48.48h-1.44Z"/>
    <path class="cls-2" d="m341.88,61.38c-.45,0-.9-.17-1.24-.51-.68-.68-.68-1.79,0-2.47l10.76-10.73-10.76-10.8c-.68-.68-.68-1.79,0-2.48.68-.68,1.79-.68,2.47,0l11.99,12.04c.68.68.68,1.79,0,2.48l-12,11.96c-.34.34-.79.51-1.24.51Z"/>
    <path class="cls-2" d="m320.88,61.38c-.45,0-.9-.17-1.24-.51-.68-.68-.68-1.79,0-2.47l10.76-10.73-10.76-10.8c-.68-.68-.68-1.79,0-2.48.69-.68,1.79-.68,2.47,0l11.99,12.04c.68.68.68,1.79,0,2.48l-12,11.96c-.34.34-.79.51-1.24.51Z"/>
    <path class="cls-2" d="m299.88,61.38c-.45,0-.9-.17-1.24-.51-.68-.68-.68-1.79,0-2.47l10.76-10.73-10.76-10.8c-.68-.68-.68-1.79,0-2.48.69-.68,1.79-.68,2.47,0l11.99,12.04c.68.68.68,1.79,0,2.48l-12,11.96c-.34.34-.79.51-1.24.51Z"/>
    <path class="cls-2" d="m278.88,61.38c-.45,0-.9-.17-1.24-.51-.68-.68-.68-1.79,0-2.47l10.76-10.73-10.76-10.8c-.68-.68-.68-1.79,0-2.48.69-.68,1.79-.68,2.47,0l11.99,12.04c.68.68.68,1.79,0,2.48l-12,11.96c-.34.34-.79.51-1.24.51Z"/>
  </g>
</svg>