<?xml version="1.0" encoding="UTF-8"?>
<svg id="Layer_2" data-name="Layer 2" xmlns="http://www.w3.org/2000/svg" xmlns:xlink="http://www.w3.org/1999/xlink" viewBox="0 0 20 20">
  <defs>
    <style>
      .cls-1, .cls-2 {
        stroke-width: 0px;
      }

      .cls-2 {
        fill: none;
      }

      .cls-3 {
        clip-path: url(#clippath);
      }
    </style>
    <clipPath id="clippath">
      <rect class="cls-2" width="20" height="20"/>
    </clipPath>
  </defs>
  <g id="Layer_3" data-name="Layer 3">
    <g class="cls-3">
      <path class="cls-1" d="m18.25,13.33v-3.33h-1.5v3.33h1.5Zm-4.92,4.92c2.72,0,4.92-2.2,4.92-4.92h-1.5c0,1.89-1.53,3.42-3.42,3.42v1.5Zm-6.67,0h6.67v-1.5h-6.67v1.5ZM1.75,13.33c0,2.72,2.2,4.92,4.92,4.92v-1.5c-1.89,0-3.42-1.53-3.42-3.42h-1.5Zm0-6.67v6.67h1.5v-6.67h-1.5ZM6.67,1.75C3.95,1.75,1.75,3.95,1.75,6.67h1.5c0-1.89,1.53-3.42,3.42-3.42v-1.5Zm2.5,0h-2.5v1.5h2.5v-1.5Zm9.08,8.25c0-.41-.34-.75-.75-.75s-.75.34-.75.75h1.5ZM9.17,3.25c.41,0,.75-.34.75-.75s-.34-.75-.75-.75v1.5Z"/>
      <path class="cls-1" d="m14.97,4.97c-.1.1-.24.16-.39.16v-1.5c-.24,0-.49.1-.67.28l1.06,1.06Zm.16-.39c0,.15-.06.28-.16.39l-1.06-1.06c-.18.18-.28.43-.28.68h1.5Zm-.54-.54c.3,0,.54.24.54.54h-1.5c0,.53.43.96.96.96v-1.5Zm-.54.54c0-.3.24-.54.54-.54v1.5c.53,0,.96-.43.96-.96h-1.5Zm.54.54c-.3,0-.54-.24-.54-.54h1.5c0-.52-.43-.95-.95-.96v1.5Zm0,0c.41,0,.75-.33.76-.74,0-.41-.33-.75-.74-.76v1.5Zm-.2-.54h.75s0,0,0,0h-.75Zm.21-.96c-.41,0-.75.33-.75.75,0,.41.33.75.75.75v-1.5Z"/>
      <path class="cls-1" d="m15.64,8.7c.45-.38,1.08-.96,1.6-1.65.51-.66,1.01-1.54,1.01-2.47h-1.5c0,.43-.25.97-.7,1.56-.43.57-.97,1.07-1.38,1.41l.97,1.14Zm-2.11,0c.61.5,1.49.5,2.1,0l-.95-1.16c-.06.05-.15.05-.21,0l-.95,1.16Zm-2.62-4.13c0,.93.5,1.81,1.01,2.47.52.69,1.15,1.27,1.6,1.65l.97-1.14c-.41-.34-.95-.85-1.38-1.42-.45-.59-.7-1.13-.7-1.56h-1.5Zm3.67-3.67c-2.03,0-3.67,1.64-3.67,3.67h1.5c0-1.2.97-2.17,2.17-2.17V.92Zm3.67,3.67c0-2.03-1.64-3.67-3.67-3.67v1.5c1.2,0,2.17.97,2.17,2.17h1.5Zm-3.09,3.55l.47.58s0,0,.01,0l-.48-.57Zm-1.15,0l-.49.57s0,0,.01.01l.47-.58Z"/>
      <path class="cls-1" d="m2.8,4.7l12.5,12.5,1.06-1.06L3.86,3.64l-1.06,1.06Zm12.5,12.5c.29.29.77.29,1.06,0,.29-.29.29-.77,0-1.06l-1.06,1.06ZM3.86,3.64c-.29-.29-.77-.29-1.06,0-.29.29-.29.77,0,1.06l1.06-1.06Z"/>
      <path class="cls-1" d="m3.86,16.36l5.83-5.83-1.06-1.06-5.83,5.83,1.06,1.06Zm5.83-5.83c.29-.29.29-.77,0-1.06s-.77-.29-1.06,0l1.06,1.06Zm-6.89,4.77c-.29.29-.29.77,0,1.06.29.29.77.29,1.06,0l-1.06-1.06Z"/>
    </g>
  </g>
</svg>