<svg width="20" height="20" viewBox="0 0 20 20" fill="none" xmlns="http://www.w3.org/2000/svg">
<path d="M9.16667 2.5H6.66667C4.36548 2.5 2.5 4.36548 2.5 6.66667V13.3333C2.5 15.6345 4.36548 17.5 6.66667 17.5H13.3333C15.6345 17.5 17.5 15.6345 17.5 13.3333V10" stroke="black" stroke-width="1.5" stroke-linecap="round" stroke-linejoin="round"/>
<path d="M14.5845 4.375C14.6994 4.37546 14.7923 4.46893 14.792 4.58388C14.7917 4.69883 14.6983 4.79181 14.5834 4.79166C14.4684 4.79151 14.3753 4.69828 14.3753 4.58333C14.375 4.52784 14.397 4.47455 14.4363 4.43539C14.4756 4.39623 14.529 4.37448 14.5845 4.375" stroke="black" stroke-width="1.5" stroke-linecap="round" stroke-linejoin="round"/>
<path fill-rule="evenodd" clip-rule="evenodd" d="M17.5003 4.58332L-nan -nanL-nan -nanL17.5003 4.58332C17.5003 2.97249 16.1945 1.66666 14.5837 1.66666L-nan -nanL-nan -nanL14.5837 1.66666C12.9728 1.66666 11.667 2.97249 11.667 4.58332L-nan -nanL-nan -nanL11.667 4.58332C11.667 5.94875 13.157 7.40734 14.007 8.12862C14.3427 8.40157 14.8238 8.40157 15.1595 8.12862C16.0103 7.40733 17.5003 5.94875 17.5003 4.58332Z" stroke="black" stroke-width="1.5" stroke-linecap="round" stroke-linejoin="round"/>
<path d="M3.33301 4.16666L15.833 16.6667" stroke="black" stroke-width="1.5" stroke-linecap="round" stroke-linejoin="round"/>
<path d="M3.33301 15.8333L9.16634 10" stroke="black" stroke-width="1.5" stroke-linecap="round" stroke-linejoin="round"/>
</svg>
