<svg width="20" height="20" viewBox="0 0 20 20" fill="none" xmlns="http://www.w3.org/2000/svg">
<path fill-rule="evenodd" clip-rule="evenodd" d="M6.06115 6.2C5.30855 6.8376 4.35416 7.18753 3.36779 7.18753H2.91634C2.45634 7.18753 2.08301 7.56086 2.08301 8.02086V11.9792C2.08301 12.4392 2.45634 12.8125 2.91634 12.8125H3.36779C4.35416 12.8125 5.30855 13.1625 6.06115 13.8001L8.21134 15.6217C8.75301 16.0809 9.58301 15.6959 9.58301 14.9859V5.01419C9.58301 4.30419 8.75217 3.91919 8.21134 4.37836L6.06115 6.2Z" stroke="black" stroke-width="1.5" stroke-linecap="round" stroke-linejoin="round"/>
<path d="M12.9473 13.315C13.9156 12.7133 14.5831 11.4617 14.5831 10.0042C14.5831 8.54666 13.9156 7.29416 12.9473 6.685" stroke="black" stroke-width="1.5" stroke-linecap="round" stroke-linejoin="round"/>
<path d="M15.4202 15.8875C16.9268 14.5917 17.916 12.4417 17.916 10.0025C17.916 7.56001 16.9252 5.40834 15.416 4.11334" stroke="black" stroke-width="1.5" stroke-linecap="round" stroke-linejoin="round"/>
</svg>
