<?xml version="1.0" encoding="UTF-8"?>
<svg id="Layer_2" data-name="Layer 2" xmlns="http://www.w3.org/2000/svg" viewBox="0 0 64 64">
  <defs>
    <style>
      .cls-1 {
        fill: #fde8a9;
      }

      .cls-1, .cls-2 {
        stroke-width: 0px;
      }

      .cls-3 {
        fill: none;
        stroke: #231f20;
        stroke-miterlimit: 10;
        stroke-width: 2px;
      }

      .cls-2 {
        fill: #231f20;
      }
    </style>
  </defs>
  <g id="Layer_2-2" data-name="Layer 2">
    <path class="cls-1" d="M32,0h0c17.67,0,32,14.33,32,32h0c0,17.67-14.33,32-32,32h0C14.33,64,0,49.67,0,32h0C0,14.33,14.33,0,32,0Z"/>
    <g id="Layer_2-2" data-name="Layer 2-2">
      <g>
        <rect class="cls-3" x="19.61" y="12.55" width="21.99" height="38.9" rx="2.74" ry="2.74" transform="translate(-13.19 25.49) rotate(-37.82)"/>
        <g>
          <path class="cls-2" d="M50.19,32.38c-.37.01-.68-.27-.7-.63-.27-3.98-1.85-7.79-4.49-10.8-2.92-3.33-6.9-5.46-11.26-6.06-.36-.05-.62-.38-.59-.75h0c.04-.39.39-.67.78-.61,4.69.64,8.97,2.93,12.1,6.51,2.84,3.23,4.54,7.33,4.83,11.6.03.39-.27.72-.66.74h0Z"/>
          <path class="cls-2" d="M49.92,29.42l2.05-.16c.78-.06,1.33.74,1,1.45l-.88,1.86-.88,1.86c-.34.71-1.31.78-1.75.14l-1.17-1.69-1.17-1.69c-.44-.64-.03-1.53.75-1.59l2.05-.16h0Z"/>
        </g>
        <path class="cls-2" d="M28.94,50.53c-.03.39-.38.67-.77.62-4.7-.58-9-2.82-12.18-6.36-2.87-3.2-4.62-7.27-4.97-11.54-.03-.39.27-.73.65-.75h0c.37-.02.68.26.71.63.32,3.97,1.95,7.77,4.62,10.75,2.96,3.29,6.96,5.38,11.34,5.92.37.05.63.37.6.74h0Z"/>
        <path class="cls-2" d="M12.01,35.45l-2.05.19c-.78.07-1.34-.72-1.02-1.44l.86-1.87.86-1.87c.33-.71,1.3-.8,1.75-.16l1.19,1.68,1.19,1.68c.45.64.04,1.53-.73,1.6l-2.05.19h0Z"/>
        <rect class="cls-2" x="14.95" y="16.73" width="8.03" height="2.03" rx=".86" ry=".86" transform="translate(-6.91 15.52) rotate(-38.18)"/>
      </g>
    </g>
  </g>
</svg>