<?xml version="1.0" encoding="UTF-8"?>
<svg id="Layer_2" data-name="Layer 2" xmlns="http://www.w3.org/2000/svg" viewBox="0 0 193.34 189.63">
  <defs>
    <style>
      .cls-1 {
        fill: #231f20;
        stroke-width: 0px;
      }

      .cls-2 {
        fill: none;
        stroke: #231f20;
        stroke-miterlimit: 10;
        stroke-width: 6px;
      }
    </style>
  </defs>
  <g id="Layer_2-2" data-name="Layer 2">
    <g>
      <rect class="cls-2" x="47.06" y="9.77" width="96.16" height="170.09" rx="12" ry="12" transform="translate(-38.15 78.26) rotate(-37.82)"/>
      <g>
        <path class="cls-1" d="m180.75,96.46c-1.6.05-2.97-1.17-3.08-2.77-1.18-17.39-8.1-34.07-19.64-47.23-12.76-14.55-30.16-23.89-49.25-26.48-1.59-.22-2.73-1.66-2.57-3.26h0c.17-1.7,1.72-2.91,3.4-2.68,20.51,2.79,39.21,12.83,52.93,28.47,12.4,14.14,19.83,32.05,21.11,50.73.12,1.7-1.2,3.17-2.9,3.22h0Z"/>
        <path class="cls-1" d="m179.57,83.54l8.97-.72c3.41-.27,5.83,3.24,4.37,6.33l-3.86,8.13-3.86,8.13c-1.47,3.09-5.72,3.43-7.66.62l-5.11-7.41-5.11-7.41c-1.94-2.81-.11-6.67,3.3-6.95l8.97-.72Z"/>
      </g>
      <path class="cls-1" d="m87.86,175.85c-.15,1.7-1.68,2.93-3.37,2.72-20.55-2.55-39.36-12.35-53.27-27.82-12.57-13.99-20.22-31.81-21.73-50.47-.14-1.7,1.16-3.18,2.86-3.26h0c1.6-.07,2.98,1.14,3.11,2.74,1.39,17.38,8.51,33.97,20.21,46.99,12.94,14.4,30.45,23.52,49.57,25.88,1.6.2,2.75,1.63,2.61,3.23h0Z"/>
      <path class="cls-1" d="m13.82,109.91l-8.96.83c-3.4.32-5.87-3.17-4.44-6.28l3.76-8.18,3.76-8.18c1.43-3.1,5.68-3.5,7.66-.71l5.2,7.35,5.2,7.35c1.97,2.79.19,6.67-3.21,6.99l-8.96.83Z"/>
      <rect class="cls-1" x="26.67" y="28.07" width="35.11" height="8.86" rx="3.77" ry="3.77" transform="translate(-10.62 34.29) rotate(-38.18)"/>
    </g>
  </g>
</svg>