<svg width="76" height="34" viewBox="0 0 76 34" fill="none" xmlns="http://www.w3.org/2000/svg">
<path d="M20.6098 7.01229V3.77442C20.6098 1.69331 22.3185 0 24.4185 0H27.6853C27.9841 0 28.2286 0.241712 28.2286 0.537875C28.2286 0.834038 27.9855 1.07575 27.6853 1.07575H24.4185C22.9175 1.07575 21.6951 2.28696 21.6951 3.77575V7.01362C21.6951 7.30979 21.4519 7.5515 21.1517 7.5515C20.8515 7.5515 20.6084 7.30979 20.6084 7.01362L20.6098 7.01229ZM27.6853 32.9233H24.4185C22.9175 32.9233 21.6951 31.712 21.6951 30.2233V26.9854C21.6951 26.6892 21.4519 26.4475 21.1517 26.4475C20.8515 26.4475 20.6084 26.6879 20.6084 26.9854V30.2233C20.6084 32.3057 22.3172 33.9977 24.4171 33.9977H27.6839C27.9827 33.9977 28.2272 33.756 28.2272 33.4598C28.2272 33.1636 27.9841 32.9219 27.6839 32.9219L27.6853 32.9233ZM54.8463 26.4488C54.5475 26.4488 54.303 26.6892 54.303 26.9867V30.2246C54.303 31.7134 53.0819 32.9246 51.5795 32.9246H48.3128C48.0139 32.9246 47.7708 33.165 47.7708 33.4625C47.7708 33.7599 48.0139 34.0003 48.3128 34.0003H51.5795C53.6795 34.0003 55.3883 32.307 55.3883 30.2259V26.988C55.3883 26.6919 55.1451 26.4502 54.845 26.4502L54.8463 26.4488ZM51.5809 0H48.3141C48.0153 0 47.7722 0.241712 47.7722 0.537875C47.7722 0.834038 48.0153 1.07575 48.3141 1.07575H51.5809C53.0819 1.07575 54.3043 2.28696 54.3043 3.77575V7.01362C54.3043 7.30979 54.5475 7.5515 54.8477 7.5515C55.1479 7.5515 55.391 7.30979 55.391 7.01362V3.77575C55.391 1.69464 53.6822 0.00132809 51.5823 0.00132809L51.5809 0Z" fill="white"/>
<path d="M57.0215 13.2812H57.6295V20.7174H57.0215V13.2812ZM62.358 20.7174H62.9511V17.3427H66.0943V16.813H62.9511V13.811H66.5816V13.2812H62.358V20.7174ZM74.8903 13.2812C74.8333 13.2812 74.7831 13.2969 74.7383 13.3283C74.703 13.3571 74.6745 13.395 74.6569 13.433L72.5939 16.8103C72.5505 16.8888 72.5098 16.9686 72.4758 17.0471C72.4582 17.0837 72.4419 17.1216 72.4256 17.1609C72.408 17.123 72.3903 17.085 72.3713 17.0458C72.3333 16.9699 72.2926 16.8901 72.2478 16.809L70.189 13.4382C70.1659 13.3898 70.1347 13.3532 70.1008 13.3283C70.0628 13.2983 70.0125 13.2826 69.9542 13.2826H69.4154L72.1175 17.6593V20.7188H72.7296V17.6593L75.3911 13.3493L75.4318 13.2826H74.893L74.8903 13.2812Z" fill="white"/>
<path d="M28.2539 13.2826H26.705L23.6235 20.656L23.5977 20.7161H24.796C24.9278 20.7161 25.042 20.6808 25.1316 20.6102C25.2254 20.5409 25.2879 20.4624 25.3191 20.3774L25.8911 18.9074H29.065L29.6371 20.3787C29.6765 20.4742 29.739 20.5553 29.8259 20.622C29.9169 20.6847 30.0311 20.7161 30.167 20.7161H31.3599L28.2648 13.3087L28.2525 13.2812L28.2539 13.2826ZM27.3694 15.0886C27.4047 14.9827 27.4414 14.8702 27.4767 14.7525C27.5121 14.8689 27.5487 14.9814 27.5841 15.0899C27.6384 15.2364 27.6873 15.3633 27.7308 15.4718L28.6588 17.856H26.2987L27.2267 15.4836C27.2743 15.3698 27.3218 15.2377 27.368 15.0899L27.3694 15.0886ZM39.9129 17.5512C40.1506 17.4728 40.368 17.3721 40.5583 17.2518C40.777 17.1144 40.9631 16.9523 41.1099 16.7692C41.2607 16.5874 41.3762 16.3808 41.4523 16.1571C41.5324 15.9335 41.5732 15.6928 41.5732 15.4417C41.5732 15.1266 41.5134 14.8336 41.3979 14.5707C41.2838 14.304 41.099 14.0725 40.849 13.8828C40.6045 13.6932 40.2838 13.5454 39.8979 13.4434C39.5175 13.3375 39.0528 13.2839 38.5175 13.2839H36.0881V20.7188H37.6343V17.8481H38.2104C38.3463 17.8481 38.4482 17.8651 38.5134 17.8991C38.5814 17.9318 38.6439 17.9907 38.7009 18.0717L40.3449 20.4245C40.4088 20.5173 40.489 20.5906 40.5827 20.6416C40.6792 20.6926 40.796 20.7174 40.9292 20.7174H42.3259L40.3191 17.9344C40.2036 17.7762 40.0691 17.648 39.9156 17.5499L39.9129 17.5512ZM40.0596 15.5424C40.0596 15.7229 40.0284 15.8903 39.9659 16.0394C39.9047 16.1872 39.8083 16.3193 39.6805 16.4291C39.5569 16.5364 39.3925 16.6214 39.1941 16.6842C38.9971 16.7469 38.7621 16.7783 38.4944 16.7783H37.633V14.4282H38.5161C39.0406 14.4282 39.4319 14.5263 39.6819 14.7185C39.9319 14.9082 40.0583 15.1854 40.0583 15.5424H40.0596ZM48.5039 14.4936H46.1425V13.2826H52.402V14.4936H50.0515V20.7174H48.5053V14.4936H48.5039Z" fill="white"/>
<path d="M5.94025 17.7364C6.07339 17.9379 6.14132 18.1929 6.14132 18.4951C6.14132 18.7972 6.07475 19.0942 5.94296 19.3662C5.81526 19.6344 5.62505 19.8725 5.37915 20.0726C5.13324 20.2714 4.82756 20.431 4.47296 20.5474C4.11837 20.6599 3.70807 20.7174 3.25294 20.7174C2.66467 20.7174 2.14976 20.6324 1.72317 20.465C1.29792 20.2949 0.918877 20.0595 0.598248 19.7652L0.568359 19.7377L0.769431 19.4827C0.831927 19.4186 0.902573 19.3898 0.981372 19.3898C1.02892 19.3898 1.08463 19.412 1.15256 19.4591C1.21097 19.4997 1.28298 19.5507 1.36721 19.6122C1.44873 19.6684 1.54926 19.7325 1.66475 19.8031C1.77887 19.8698 1.91337 19.9326 2.06553 19.9928C2.21769 20.049 2.39431 20.0987 2.59131 20.138C2.7883 20.1772 3.01519 20.1982 3.26517 20.1982C3.61025 20.1982 3.92273 20.1563 4.19173 20.0726C4.46074 19.9863 4.69034 19.8698 4.87239 19.7246C5.05852 19.5808 5.20253 19.4081 5.29899 19.2119C5.39545 19.0118 5.44572 18.7972 5.44572 18.571C5.44572 18.329 5.38322 18.1275 5.26095 17.9732C5.13867 17.8123 4.97564 17.6789 4.77321 17.5742C4.56671 17.4644 4.33031 17.3715 4.06674 17.2982C3.79366 17.2211 3.51923 17.1478 3.25294 17.0811C2.97036 17.0092 2.6932 16.9281 2.42828 16.8417C2.16335 16.7541 1.92152 16.639 1.70822 16.5016C1.49356 16.3591 1.3183 16.1825 1.18652 15.9758C1.05745 15.7626 0.990882 15.4944 0.990882 15.1805C0.990882 14.9346 1.0493 14.6939 1.16478 14.465C1.28026 14.2361 1.45145 14.0334 1.6729 13.8607C1.89299 13.6854 2.16878 13.5455 2.49077 13.4421C2.81683 13.3362 3.19045 13.2826 3.60346 13.2826C4.06674 13.2826 4.48791 13.3427 4.85473 13.4631C5.22562 13.5821 5.56935 13.7678 5.87367 14.0138L5.90356 14.0386L5.73238 14.3054C5.68619 14.3761 5.6169 14.4127 5.52995 14.4127C5.46474 14.4127 5.3873 14.38 5.28948 14.3133C5.20796 14.2505 5.09384 14.1812 4.94983 14.1079C4.80718 14.0321 4.62377 13.9614 4.40639 13.8986C4.19309 13.8359 3.92545 13.8032 3.61025 13.8032C3.29506 13.8032 3.01247 13.8398 2.77064 13.913C2.53425 13.985 2.33317 14.0844 2.1715 14.21C2.0139 14.3342 1.89163 14.4794 1.8074 14.6416C1.72724 14.8038 1.68648 14.9765 1.68648 15.1544C1.68648 15.3872 1.74626 15.5821 1.86582 15.7325C1.99081 15.8856 2.15656 16.019 2.35899 16.1262C2.56414 16.2361 2.79917 16.3303 3.05866 16.4075C3.32495 16.482 3.59939 16.5566 3.87926 16.6311C4.15777 16.7044 4.43356 16.7894 4.69849 16.881C4.96749 16.9699 5.21204 17.0837 5.42398 17.2211C5.63864 17.3597 5.81118 17.5337 5.94025 17.7377V17.7364ZM18.3714 13.2996C18.3293 13.314 18.2912 13.3467 18.2532 13.4016L14.9994 18.5056C14.9668 18.5566 14.9369 18.6102 14.9097 18.6651C14.8988 18.6874 14.8866 18.7083 14.8757 18.7318C14.8418 18.6547 14.8024 18.5814 14.7602 18.5108L11.4127 13.4003C11.376 13.3467 11.3379 13.314 11.2958 13.2996C11.2591 13.2878 11.213 13.2812 11.1518 13.2812H10.6899V20.7174H11.3094V14.4114C11.3094 14.3722 11.3094 14.3329 11.3067 14.2924L14.5605 19.2851C14.6244 19.3885 14.7168 19.4421 14.835 19.4421H14.9287C15.0469 19.4421 15.1393 19.3898 15.2018 19.2864L18.3673 14.3081C18.366 14.3434 18.3646 14.3787 18.3646 14.4127V20.7188H18.9787V13.2826H18.5222C18.4638 13.2826 18.4135 13.2878 18.3728 13.3009L18.3714 13.2996Z" fill="white"/>
</svg>
